<svg xmlns="http://www.w3.org/2000/svg" width="1200" height="830" viewBox="0 0 1200 830" role="img" aria-labelledby="title desc" style="font-family:'IBM Plex Sans', 'Helvetica Neue', Arial, sans-serif">
  <title id="title">Semiotic release dashboard</title>
  <desc id="desc">A server-rendered dashboard showing Semiotic's chart catalog, bundle sizes, capability coverage, chart families, and documentation surface growth since version 3.0.0.</desc>
  <rect width="1200" height="830" fill="#f4f4f4" />
  <g transform="translate(34,40)">
    
    <g transform="translate(0,0)">
      <text y="0" font-size="24" font-weight="700" fill="#0f62fe">54</text>
      <text y="17" font-size="10" fill="#525252">schema-backed charts</text>
    </g>
    
    <g transform="translate(158,0)">
      <text y="0" font-size="24" font-weight="700" fill="#007d79">43</text>
      <text y="17" font-size="10" fill="#525252">SSR renderable</text>
    </g>
    
    <g transform="translate(292,0)">
      <text y="0" font-size="24" font-weight="700" fill="#8a3ffc">45</text>
      <text y="17" font-size="10" fill="#525252">push capable</text>
    </g>
    
    <g transform="translate(421,0)">
      <text y="0" font-size="24" font-weight="700" fill="#d02670">42</text>
      <text y="17" font-size="10" fill="#525252">linked hover</text>
    </g>
    
    <g transform="translate(556,0)">
      <text y="0" font-size="24" font-weight="700" fill="#198038">42</text>
      <text y="17" font-size="10" fill="#525252">selection-aware</text>
    </g>
    
    <g transform="translate(710,0)">
      <text y="0" font-size="24" font-weight="700" fill="#ff832b">351KB</text>
      <text y="17" font-size="10" fill="#525252">full bundle</text>
    </g>
    
    <g transform="translate(836,0)">
      <text y="0" font-size="24" font-weight="700" fill="#da1e28">434KB</text>
      <text y="17" font-size="10" fill="#525252">AI bundle</text>
    </g>
    
    <g transform="translate(958,0)">
      <text y="0" font-size="24" font-weight="700" fill="#1192e8">191KB</text>
      <text y="17" font-size="10" fill="#525252">server bundle</text>
    </g>
  </g>
  
    <g transform="translate(24,84)">
      <rect width="376" height="330" rx="6" fill="#ffffff" stroke="#c6c6c6" />
      <text x="20" y="28" font-size="17" font-weight="700" fill="#161616">Catalog growth</text>
      <text x="20" y="49" font-size="11" fill="#525252">27 charts in 3.0.0 → 54 in 3.8.4</text>
      <g transform="translate(12,62)"><svg xmlns="http://www.w3.org/2000/svg" class="stream-xy-frame" width="356" height="230" role="img" aria-labelledby="catalog-growth-desc" style="font-family:&#x27;IBM Plex Sans&#x27;, &#x27;Helvetica Neue&#x27;, Arial, sans-serif"><desc id="catalog-growth-desc">Line chart showing chart catalog and public export growth since 3.0.0.</desc><g id="catalog-growth-data-area" transform="translate(42,14)"><g id="catalog-growth-grid" class="semiotic-grid" opacity="0.8"><line x1="0" y1="0" x2="0" y2="172" stroke="#e0e0e0" stroke-width="0.5"></line><line x1="103.57142857142857" y1="0" x2="103.57142857142857" y2="172" stroke="#e0e0e0" stroke-width="0.5"></line><line x1="207.14285714285714" y1="0" x2="207.14285714285714" y2="172" stroke="#e0e0e0" stroke-width="0.5"></line><line x1="0" y1="151.43478260869566" x2="290" y2="151.43478260869566" stroke="#e0e0e0" stroke-width="0.5"></line><line x1="0" y1="120.27536231884058" x2="290" y2="120.27536231884058" stroke="#e0e0e0" stroke-width="0.5"></line><line x1="0" y1="89.11594202898551" x2="290" y2="89.11594202898551" stroke="#e0e0e0" stroke-width="0.5"></line><line x1="0" y1="57.956521739130444" x2="290" y2="57.956521739130444" stroke="#e0e0e0" stroke-width="0.5"></line><line x1="0" y1="26.797101449275367" x2="290" y2="26.797101449275367" stroke="#e0e0e0" stroke-width="0.5"></line></g><defs><clipPath id="cjn7afl-plot-clip"><rect x="0" y="0" width="290" height="172"></rect></clipPath></defs><g clip-path="url(#cjn7afl-plot-clip)"><path d="M0,98.46376811594203L20.71428571428571,89.11594202898551L41.42857142857142,79.76811594202897L62.14285714285714,70.42028985507247L82.85714285714285,51.72463768115942L103.57142857142857,48.60869565217392L124.28571428571428,42.3768115942029L145,42.3768115942029L165.7142857142857,39.26086956521739L186.42857142857144,36.14492753623189L207.14285714285714,36.14492753623189L227.85714285714286,36.14492753623189L248.57142857142856,36.14492753623189L269.2857142857143,36.14492753623189L290,14.33333333333334" fill="none" stroke="#6929c4" stroke-width="2"></path><path d="M0,157.66666666666666L20.71428571428571,154.55072463768116L41.42857142857142,151.43478260869566L62.14285714285714,148.31884057971016L82.85714285714285,148.31884057971016L103.57142857142857,145.20289855072463L124.28571428571428,145.20289855072463L145,145.20289855072463L165.7142857142857,145.20289855072463L186.42857142857144,142.08695652173913L207.14285714285714,142.08695652173913L227.85714285714286,142.08695652173913L248.57142857142856,142.08695652173913L269.2857142857143,142.08695652173913L290,86" fill="none" stroke="#1192e8" stroke-width="2"></path></g><g id="catalog-growth-axes" class="stream-axes"><line x1="0" y1="172" x2="290" y2="172" stroke="#e0e0e0" stroke-width="1"></line><g transform="translate(0,172)"><line y2="5" stroke="#e0e0e0" stroke-width="1"></line><text y="18" text-anchor="middle" font-size="12" fill="#525252" font-family="&#x27;IBM Plex Sans&#x27;, &#x27;Helvetica Neue&#x27;, Arial, sans-serif">0</text></g><g transform="translate(103.57142857142857,172)"><line y2="5" stroke="#e0e0e0" stroke-width="1"></line><text y="18" text-anchor="middle" font-size="12" fill="#525252" font-family="&#x27;IBM Plex Sans&#x27;, &#x27;Helvetica Neue&#x27;, Arial, sans-serif">5</text></g><g transform="translate(207.14285714285714,172)"><line y2="5" stroke="#e0e0e0" stroke-width="1"></line><text y="18" text-anchor="middle" font-size="12" fill="#525252" font-family="&#x27;IBM Plex Sans&#x27;, &#x27;Helvetica Neue&#x27;, Arial, sans-serif">10</text></g><line x1="0" y1="0" x2="0" y2="172" stroke="#e0e0e0" stroke-width="1"></line><g transform="translate(0,151.43478260869566)"><line x2="-5" stroke="#e0e0e0" stroke-width="1"></line><text x="-8" text-anchor="end" dominant-baseline="middle" font-size="12" fill="#525252" font-family="&#x27;IBM Plex Sans&#x27;, &#x27;Helvetica Neue&#x27;, Arial, sans-serif">10</text></g><g transform="translate(0,120.27536231884058)"><line x2="-5" stroke="#e0e0e0" stroke-width="1"></line><text x="-8" text-anchor="end" dominant-baseline="middle" font-size="12" fill="#525252" font-family="&#x27;IBM Plex Sans&#x27;, &#x27;Helvetica Neue&#x27;, Arial, sans-serif">20</text></g><g transform="translate(0,89.11594202898551)"><line x2="-5" stroke="#e0e0e0" stroke-width="1"></line><text x="-8" text-anchor="end" dominant-baseline="middle" font-size="12" fill="#525252" font-family="&#x27;IBM Plex Sans&#x27;, &#x27;Helvetica Neue&#x27;, Arial, sans-serif">30</text></g><g transform="translate(0,57.956521739130444)"><line x2="-5" stroke="#e0e0e0" stroke-width="1"></line><text x="-8" text-anchor="end" dominant-baseline="middle" font-size="12" fill="#525252" font-family="&#x27;IBM Plex Sans&#x27;, &#x27;Helvetica Neue&#x27;, Arial, sans-serif">40</text></g><g transform="translate(0,26.797101449275367)"><line x2="-5" stroke="#e0e0e0" stroke-width="1"></line><text x="-8" text-anchor="end" dominant-baseline="middle" font-size="12" fill="#525252" font-family="&#x27;IBM Plex Sans&#x27;, &#x27;Helvetica Neue&#x27;, Arial, sans-serif">50</text></g></g></g><g id="legend"><g class="semiotic-legend" transform="translate(342,14)"><line x1="0" y1="29" x2="100" y2="29" stroke="gray"></line><g transform="translate(0,37)"><rect width="16" height="16" fill="#6929c4" rx="0"></rect><text x="22" y="8" dominant-baseline="central" font-size="12" fill="#161616" font-family="&#x27;IBM Plex Sans&#x27;, &#x27;Helvetica Neue&#x27;, Arial, sans-serif">Charts</text></g><g transform="translate(0,59)"><rect width="16" height="16" fill="#1192e8" rx="0"></rect><text x="22" y="8" dominant-baseline="central" font-size="12" fill="#161616" font-family="&#x27;IBM Plex Sans&#x27;, &#x27;Helvetica Neue&#x27;, Arial, sans-serif">Public exports</text></g></g></g></svg></g>
      <text x="20" y="314" font-size="10" fill="#525252">AI schema count + public package exports, read from release artifacts</text>
    </g>
  
    <g transform="translate(418,84)">
      <rect width="376" height="330" rx="6" fill="#ffffff" stroke="#c6c6c6" />
      <text x="20" y="28" font-size="17" font-weight="700" fill="#161616">Bundle budget</text>
      <text x="20" y="49" font-size="11" fill="#525252">Subpath imports keep production payloads intentional</text>
      <g transform="translate(12,62)"><svg xmlns="http://www.w3.org/2000/svg" class="stream-ordinal-frame" width="356" height="230" role="img" aria-labelledby="bundle-budget-desc" style="font-family:&#x27;IBM Plex Sans&#x27;, &#x27;Helvetica Neue&#x27;, Arial, sans-serif"><desc id="bundle-budget-desc">Current production bundle sizes generated from dist artifacts.</desc><g id="bundle-budget-data-area" transform="translate(104,10)"><g id="bundle-budget-grid" class="semiotic-grid" opacity="0.8"><line x1="0" y1="0" x2="0" y2="186" stroke="#e0e0e0" stroke-width="0.5"></line><line x1="57.84093742208925" y1="0" x2="57.84093742208925" y2="186" stroke="#e0e0e0" stroke-width="0.5"></line><line x1="115.6818748441785" y1="0" x2="115.6818748441785" y2="186" stroke="#e0e0e0" stroke-width="0.5"></line><line x1="173.52281226626775" y1="0" x2="173.52281226626775" y2="186" stroke="#e0e0e0" stroke-width="0.5"></line><line x1="231.363749688357" y1="0" x2="231.363749688357" y2="186" stroke="#e0e0e0" stroke-width="0.5"></line></g><rect x="0" y="1.5371900826446137" width="220.95238095238093" height="13.834710743801654" fill="#6929c4"></rect><rect x="0" y="16.909090909090896" width="173.52281226626775" height="13.834710743801654" fill="#6929c4"></rect><rect x="0" y="32.28099173553718" width="159.64098728496631" height="13.834710743801654" fill="#6929c4"></rect><rect x="0" y="47.652892561983464" width="156.17053103964096" height="13.834710743801654" fill="#6929c4"></rect><rect x="0" y="63.02479338842974" width="143.44552480678135" height="13.834710743801654" fill="#6929c4"></rect><rect x="0" y="78.39669421487602" width="135.34779356768885" height="13.834710743801654" fill="#6929c4"></rect><rect x="0" y="93.76859504132231" width="112.21141859885314" height="13.834710743801654" fill="#6929c4"></rect><rect x="0" y="109.14049586776859" width="90.23186237845923" height="13.834710743801654" fill="#6929c4"></rect><rect x="0" y="124.51239669421487" width="87.91822488157565" height="13.834710743801654" fill="#6929c4"></rect><rect x="0" y="139.88429752066116" width="9.25454998753428" height="13.834710743801654" fill="#6929c4"></rect><rect x="0" y="155.25619834710744" width="8.097731239092496" height="13.834710743801654" fill="#6929c4"></rect><rect x="0" y="170.62809917355372" width="4.62727499376714" height="13.834710743801654" fill="#6929c4"></rect><g id="bundle-budget-axes" class="ordinal-axes"><line x1="0" y1="186" x2="232" y2="186" stroke="#e0e0e0" stroke-width="1"></line><g transform="translate(0,186)"><line y2="5" stroke="#e0e0e0" stroke-width="1"></line><text y="18" text-anchor="middle" font-size="12" fill="#525252" font-family="&#x27;IBM Plex Sans&#x27;, &#x27;Helvetica Neue&#x27;, Arial, sans-serif">0</text></g><g transform="translate(57.84093742208925,186)"><line y2="5" stroke="#e0e0e0" stroke-width="1"></line><text y="18" text-anchor="middle" font-size="12" fill="#525252" font-family="&#x27;IBM Plex Sans&#x27;, &#x27;Helvetica Neue&#x27;, Arial, sans-serif">50</text></g><g transform="translate(115.6818748441785,186)"><line y2="5" stroke="#e0e0e0" stroke-width="1"></line><text y="18" text-anchor="middle" font-size="12" fill="#525252" font-family="&#x27;IBM Plex Sans&#x27;, &#x27;Helvetica Neue&#x27;, Arial, sans-serif">100</text></g><g transform="translate(173.52281226626775,186)"><line y2="5" stroke="#e0e0e0" stroke-width="1"></line><text y="18" text-anchor="middle" font-size="12" fill="#525252" font-family="&#x27;IBM Plex Sans&#x27;, &#x27;Helvetica Neue&#x27;, Arial, sans-serif">150</text></g><g transform="translate(231.363749688357,186)"><line y2="5" stroke="#e0e0e0" stroke-width="1"></line><text y="18" text-anchor="middle" font-size="12" fill="#525252" font-family="&#x27;IBM Plex Sans&#x27;, &#x27;Helvetica Neue&#x27;, Arial, sans-serif">200</text></g><line x1="0" y1="0" x2="0" y2="186" stroke="#e0e0e0" stroke-width="1"></line><g transform="translate(0,8.45454545454544)"><line x2="-5" stroke="#e0e0e0" stroke-width="1"></line><text x="-8" text-anchor="end" dominant-baseline="middle" font-size="12" fill="#525252" font-family="&#x27;IBM Plex Sans&#x27;, &#x27;Helvetica Neue&#x27;, Arial, sans-serif">semiotic/server</text></g><g transform="translate(0,23.826446280991725)"><line x2="-5" stroke="#e0e0e0" stroke-width="1"></line><text x="-8" text-anchor="end" dominant-baseline="middle" font-size="12" fill="#525252" font-family="&#x27;IBM Plex Sans&#x27;, &#x27;Helvetica Neue&#x27;, Arial, sans-serif">semiotic/realtime</text></g><g transform="translate(0,39.198347107438)"><line x2="-5" stroke="#e0e0e0" stroke-width="1"></line><text x="-8" text-anchor="end" dominant-baseline="middle" font-size="12" fill="#525252" font-family="&#x27;IBM Plex Sans&#x27;, &#x27;Helvetica Neue&#x27;, Arial, sans-serif">semiotic/xy</text></g><g transform="translate(0,54.57024793388429)"><line x2="-5" stroke="#e0e0e0" stroke-width="1"></line><text x="-8" text-anchor="end" dominant-baseline="middle" font-size="12" fill="#525252" font-family="&#x27;IBM Plex Sans&#x27;, &#x27;Helvetica Neue&#x27;, Arial, sans-serif">semiotic/physics</text></g><g transform="translate(0,69.94214876033057)"><line x2="-5" stroke="#e0e0e0" stroke-width="1"></line><text x="-8" text-anchor="end" dominant-baseline="middle" font-size="12" fill="#525252" font-family="&#x27;IBM Plex Sans&#x27;, &#x27;Helvetica Neue&#x27;, Arial, sans-serif">semiotic/network</text></g><g transform="translate(0,85.31404958677685)"><line x2="-5" stroke="#e0e0e0" stroke-width="1"></line><text x="-8" text-anchor="end" dominant-baseline="middle" font-size="12" fill="#525252" font-family="&#x27;IBM Plex Sans&#x27;, &#x27;Helvetica Neue&#x27;, Arial, sans-serif">semiotic/ordinal</text></g><g transform="translate(0,100.68595041322314)"><line x2="-5" stroke="#e0e0e0" stroke-width="1"></line><text x="-8" text-anchor="end" dominant-baseline="middle" font-size="12" fill="#525252" font-family="&#x27;IBM Plex Sans&#x27;, &#x27;Helvetica Neue&#x27;, Arial, sans-serif">semiotic/geo</text></g><g transform="translate(0,116.05785123966942)"><line x2="-5" stroke="#e0e0e0" stroke-width="1"></line><text x="-8" text-anchor="end" dominant-baseline="middle" font-size="12" fill="#525252" font-family="&#x27;IBM Plex Sans&#x27;, &#x27;Helvetica Neue&#x27;, Arial, sans-serif">semiotic/recipes</text></g><g transform="translate(0,131.4297520661157)"><line x2="-5" stroke="#e0e0e0" stroke-width="1"></line><text x="-8" text-anchor="end" dominant-baseline="middle" font-size="12" fill="#525252" font-family="&#x27;IBM Plex Sans&#x27;, &#x27;Helvetica Neue&#x27;, Arial, sans-serif">semiotic/utils</text></g><g transform="translate(0,146.801652892562)"><line x2="-5" stroke="#e0e0e0" stroke-width="1"></line><text x="-8" text-anchor="end" dominant-baseline="middle" font-size="12" fill="#525252" font-family="&#x27;IBM Plex Sans&#x27;, &#x27;Helvetica Neue&#x27;, Arial, sans-serif">semiotic/value</text></g><g transform="translate(0,162.17355371900828)"><line x2="-5" stroke="#e0e0e0" stroke-width="1"></line><text x="-8" text-anchor="end" dominant-baseline="middle" font-size="12" fill="#525252" font-family="&#x27;IBM Plex Sans&#x27;, &#x27;Helvetica Neue&#x27;, Arial, sans-serif">semiotic/themes</text></g><g transform="translate(0,177.54545454545456)"><line x2="-5" stroke="#e0e0e0" stroke-width="1"></line><text x="-8" text-anchor="end" dominant-baseline="middle" font-size="12" fill="#525252" font-family="&#x27;IBM Plex Sans&#x27;, &#x27;Helvetica Neue&#x27;, Arial, sans-serif">semiotic/data</text></g></g></g></svg></g>
      <text x="20" y="314" font-size="10" fill="#525252">Measured from current production dist with gzip -9</text>
    </g>
  
    <g transform="translate(812,84)">
      <rect width="376" height="330" rx="6" fill="#ffffff" stroke="#c6c6c6" />
      <text x="20" y="28" font-size="17" font-weight="700" fill="#161616">Capability surface</text>
      <text x="20" y="49" font-size="11" fill="#525252">SSR, push, hover, and selection coverage stay explicit</text>
      <g transform="translate(12,62)"><svg xmlns="http://www.w3.org/2000/svg" class="stream-xy-frame" width="356" height="230" role="img" aria-labelledby="capability-surface-desc" style="font-family:&#x27;IBM Plex Sans&#x27;, &#x27;Helvetica Neue&#x27;, Arial, sans-serif"><desc id="capability-surface-desc">Line chart showing SSR, push, linked hover, and selection coverage since the capability matrix shipped.</desc><g id="capability-surface-data-area" transform="translate(42,14)"><g id="capability-surface-grid" class="semiotic-grid" opacity="0.8"><line x1="0" y1="0" x2="0" y2="172" stroke="#e0e0e0" stroke-width="0.5"></line><line x1="72.5" y1="0" x2="72.5" y2="172" stroke="#e0e0e0" stroke-width="0.5"></line><line x1="145" y1="0" x2="145" y2="172" stroke="#e0e0e0" stroke-width="0.5"></line><line x1="217.5" y1="0" x2="217.5" y2="172" stroke="#e0e0e0" stroke-width="0.5"></line><line x1="290" y1="0" x2="290" y2="172" stroke="#e0e0e0" stroke-width="0.5"></line><line x1="0" y1="169.61111111111111" x2="290" y2="169.61111111111111" stroke="#e0e0e0" stroke-width="0.5"></line><line x1="0" y1="145.72222222222223" x2="290" y2="145.72222222222223" stroke="#e0e0e0" stroke-width="0.5"></line><line x1="0" y1="121.83333333333336" x2="290" y2="121.83333333333336" stroke="#e0e0e0" stroke-width="0.5"></line><line x1="0" y1="97.94444444444446" x2="290" y2="97.94444444444446" stroke="#e0e0e0" stroke-width="0.5"></line><line x1="0" y1="74.05555555555559" x2="290" y2="74.05555555555559" stroke="#e0e0e0" stroke-width="0.5"></line><line x1="0" y1="50.1666666666667" x2="290" y2="50.1666666666667" stroke="#e0e0e0" stroke-width="0.5"></line><line x1="0" y1="26.2777777777778" x2="290" y2="26.2777777777778" stroke="#e0e0e0" stroke-width="0.5"></line><line x1="0" y1="2.3888888888889186" x2="290" y2="2.3888888888889186" stroke="#e0e0e0" stroke-width="0.5"></line></g><defs><clipPath id="cjn7afr-plot-clip"><rect x="0" y="0" width="290" height="172"></rect></clipPath></defs><g clip-path="url(#cjn7afr-plot-clip)"><path d="M0,157.66666666666669L36.25,133.7777777777778L72.5,133.7777777777778L108.75,133.7777777777778L145,133.7777777777778L181.25,133.7777777777778L217.5,133.7777777777778L253.75,133.7777777777778L290,38.22222222222226" fill="none" stroke="#6929c4" stroke-width="2"></path><path d="M0,121.83333333333336L36.25,109.88888888888891L72.5,109.88888888888891L108.75,97.94444444444446L145,97.94444444444446L181.25,97.94444444444446L217.5,97.94444444444446L253.75,97.94444444444446L290,14.333333333333359" fill="none" stroke="#1192e8" stroke-width="2"></path><path d="M0,62.111111111111136L36.25,50.1666666666667L72.5,38.22222222222226L108.75,38.22222222222226L145,38.22222222222226L181.25,38.22222222222226L217.5,38.22222222222226L253.75,38.22222222222226L290,50.1666666666667" fill="none" stroke="#005d5d" stroke-width="2"></path><path d="M0,62.111111111111136L36.25,50.1666666666667L72.5,38.22222222222226L108.75,38.22222222222226L145,38.22222222222226L181.25,38.22222222222226L217.5,38.22222222222226L253.75,38.22222222222226L290,50.1666666666667" fill="none" stroke="#9f1853" stroke-width="2"></path></g><g id="capability-surface-axes" class="stream-axes"><line x1="0" y1="172" x2="290" y2="172" stroke="#e0e0e0" stroke-width="1"></line><g transform="translate(0,172)"><line y2="5" stroke="#e0e0e0" stroke-width="1"></line><text y="18" text-anchor="middle" font-size="12" fill="#525252" font-family="&#x27;IBM Plex Sans&#x27;, &#x27;Helvetica Neue&#x27;, Arial, sans-serif">6</text></g><g transform="translate(72.5,172)"><line y2="5" stroke="#e0e0e0" stroke-width="1"></line><text y="18" text-anchor="middle" font-size="12" fill="#525252" font-family="&#x27;IBM Plex Sans&#x27;, &#x27;Helvetica Neue&#x27;, Arial, sans-serif">8</text></g><g transform="translate(145,172)"><line y2="5" stroke="#e0e0e0" stroke-width="1"></line><text y="18" text-anchor="middle" font-size="12" fill="#525252" font-family="&#x27;IBM Plex Sans&#x27;, &#x27;Helvetica Neue&#x27;, Arial, sans-serif">10</text></g><g transform="translate(217.5,172)"><line y2="5" stroke="#e0e0e0" stroke-width="1"></line><text y="18" text-anchor="middle" font-size="12" fill="#525252" font-family="&#x27;IBM Plex Sans&#x27;, &#x27;Helvetica Neue&#x27;, Arial, sans-serif">12</text></g><g transform="translate(290,172)"><line y2="5" stroke="#e0e0e0" stroke-width="1"></line><text y="18" text-anchor="middle" font-size="12" fill="#525252" font-family="&#x27;IBM Plex Sans&#x27;, &#x27;Helvetica Neue&#x27;, Arial, sans-serif">14</text></g><line x1="0" y1="0" x2="0" y2="172" stroke="#e0e0e0" stroke-width="1"></line><g transform="translate(0,169.61111111111111)"><line x2="-5" stroke="#e0e0e0" stroke-width="1"></line><text x="-8" text-anchor="end" dominant-baseline="middle" font-size="12" fill="#525252" font-family="&#x27;IBM Plex Sans&#x27;, &#x27;Helvetica Neue&#x27;, Arial, sans-serif">32</text></g><g transform="translate(0,145.72222222222223)"><line x2="-5" stroke="#e0e0e0" stroke-width="1"></line><text x="-8" text-anchor="end" dominant-baseline="middle" font-size="12" fill="#525252" font-family="&#x27;IBM Plex Sans&#x27;, &#x27;Helvetica Neue&#x27;, Arial, sans-serif">34</text></g><g transform="translate(0,121.83333333333336)"><line x2="-5" stroke="#e0e0e0" stroke-width="1"></line><text x="-8" text-anchor="end" dominant-baseline="middle" font-size="12" fill="#525252" font-family="&#x27;IBM Plex Sans&#x27;, &#x27;Helvetica Neue&#x27;, Arial, sans-serif">36</text></g><g transform="translate(0,97.94444444444446)"><line x2="-5" stroke="#e0e0e0" stroke-width="1"></line><text x="-8" text-anchor="end" dominant-baseline="middle" font-size="12" fill="#525252" font-family="&#x27;IBM Plex Sans&#x27;, &#x27;Helvetica Neue&#x27;, Arial, sans-serif">38</text></g><g transform="translate(0,74.05555555555559)"><line x2="-5" stroke="#e0e0e0" stroke-width="1"></line><text x="-8" text-anchor="end" dominant-baseline="middle" font-size="12" fill="#525252" font-family="&#x27;IBM Plex Sans&#x27;, &#x27;Helvetica Neue&#x27;, Arial, sans-serif">40</text></g><g transform="translate(0,50.1666666666667)"><line x2="-5" stroke="#e0e0e0" stroke-width="1"></line><text x="-8" text-anchor="end" dominant-baseline="middle" font-size="12" fill="#525252" font-family="&#x27;IBM Plex Sans&#x27;, &#x27;Helvetica Neue&#x27;, Arial, sans-serif">42</text></g><g transform="translate(0,26.2777777777778)"><line x2="-5" stroke="#e0e0e0" stroke-width="1"></line><text x="-8" text-anchor="end" dominant-baseline="middle" font-size="12" fill="#525252" font-family="&#x27;IBM Plex Sans&#x27;, &#x27;Helvetica Neue&#x27;, Arial, sans-serif">44</text></g><g transform="translate(0,2.3888888888889186)"><line x2="-5" stroke="#e0e0e0" stroke-width="1"></line><text x="-8" text-anchor="end" dominant-baseline="middle" font-size="12" fill="#525252" font-family="&#x27;IBM Plex Sans&#x27;, &#x27;Helvetica Neue&#x27;, Arial, sans-serif">46</text></g></g></g><g id="legend"><g class="semiotic-legend" transform="translate(342,14)"><line x1="0" y1="29" x2="100" y2="29" stroke="gray"></line><g transform="translate(0,37)"><rect width="16" height="16" fill="#6929c4" rx="0"></rect><text x="22" y="8" dominant-baseline="central" font-size="12" fill="#161616" font-family="&#x27;IBM Plex Sans&#x27;, &#x27;Helvetica Neue&#x27;, Arial, sans-serif">SSR renderable</text></g><g transform="translate(0,59)"><rect width="16" height="16" fill="#1192e8" rx="0"></rect><text x="22" y="8" dominant-baseline="central" font-size="12" fill="#161616" font-family="&#x27;IBM Plex Sans&#x27;, &#x27;Helvetica Neue&#x27;, Arial, sans-serif">Push capable</text></g><g transform="translate(0,81)"><rect width="16" height="16" fill="#005d5d" rx="0"></rect><text x="22" y="8" dominant-baseline="central" font-size="12" fill="#161616" font-family="&#x27;IBM Plex Sans&#x27;, &#x27;Helvetica Neue&#x27;, Arial, sans-serif">Linked hover</text></g><g transform="translate(0,103)"><rect width="16" height="16" fill="#9f1853" rx="0"></rect><text x="22" y="8" dominant-baseline="central" font-size="12" fill="#161616" font-family="&#x27;IBM Plex Sans&#x27;, &#x27;Helvetica Neue&#x27;, Arial, sans-serif">Selection</text></g></g></g></svg></g>
      <text x="20" y="314" font-size="10" fill="#525252">Capability matrix began in 3.5.2 and is release-gated</text>
    </g>
  
    <g transform="translate(24,432)">
      <rect width="573" height="354" rx="6" fill="#ffffff" stroke="#c6c6c6" />
      <text x="20" y="28" font-size="17" font-weight="700" fill="#161616">Families by render path</text>
      <text x="20" y="49" font-size="11" fill="#525252">SSR is broad; realtime stays browser/live where that is the point</text>
      <g transform="translate(12,62)"><svg xmlns="http://www.w3.org/2000/svg" class="stream-ordinal-frame" width="544" height="250" role="img" aria-labelledby="family-render-path-desc" style="font-family:&#x27;IBM Plex Sans&#x27;, &#x27;Helvetica Neue&#x27;, Arial, sans-serif"><desc id="family-render-path-desc">Stacked bars comparing SSR-renderable and browser/live chart counts by family.</desc><g id="family-render-path-data-area" transform="translate(42,14)"><g id="family-render-path-grid" class="semiotic-grid" opacity="0.8"><line x1="0" y1="194" x2="480" y2="194" stroke="#e0e0e0" stroke-width="0.5"></line><line x1="0" y1="169.36507936507937" x2="480" y2="169.36507936507937" stroke="#e0e0e0" stroke-width="0.5"></line><line x1="0" y1="144.73015873015873" x2="480" y2="144.73015873015873" stroke="#e0e0e0" stroke-width="0.5"></line><line x1="0" y1="120.0952380952381" x2="480" y2="120.0952380952381" stroke="#e0e0e0" stroke-width="0.5"></line><line x1="0" y1="95.46031746031747" x2="480" y2="95.46031746031747" stroke="#e0e0e0" stroke-width="0.5"></line><line x1="0" y1="70.82539682539684" x2="480" y2="70.82539682539684" stroke="#e0e0e0" stroke-width="0.5"></line><line x1="0" y1="46.1904761904762" x2="480" y2="46.1904761904762" stroke="#e0e0e0" stroke-width="0.5"></line><line x1="0" y1="21.555555555555564" x2="480" y2="21.555555555555564" stroke="#e0e0e0" stroke-width="0.5"></line></g><rect x="6.760563380281695" y="107.77777777777779" width="60.84507042253521" height="86.22222222222221" fill="#6929c4"></rect><rect x="6.760563380281695" y="107.77777777777779" width="60.84507042253521" height="0" fill="#1192e8"></rect><rect x="74.36619718309859" y="70.82539682539684" width="60.84507042253521" height="123.17460317460316" fill="#6929c4"></rect><rect x="74.36619718309859" y="33.87301587301588" width="60.84507042253521" height="36.952380952380956" fill="#1192e8"></rect><rect x="141.9718309859155" y="9.238095238095248" width="60.84507042253521" height="184.76190476190476" fill="#6929c4"></rect><rect x="141.9718309859155" y="9.238095238095248" width="60.84507042253521" height="0" fill="#1192e8"></rect><rect x="209.57746478873239" y="107.77777777777779" width="60.84507042253521" height="86.22222222222221" fill="#6929c4"></rect><rect x="209.57746478873239" y="95.46031746031747" width="60.84507042253521" height="12.317460317460316" fill="#1192e8"></rect><rect x="277.1830985915493" y="157.04761904761904" width="60.84507042253521" height="36.95238095238096" fill="#6929c4"></rect><rect x="277.1830985915493" y="144.73015873015873" width="60.84507042253521" height="12.317460317460302" fill="#1192e8"></rect><rect x="344.7887323943662" y="181.68253968253967" width="60.84507042253521" height="12.31746031746033" fill="#6929c4"></rect><rect x="344.7887323943662" y="120.0952380952381" width="60.84507042253521" height="61.58730158730157" fill="#1192e8"></rect><rect x="412.3943661971831" y="194" width="60.84507042253521" height="0" fill="#6929c4"></rect><rect x="412.3943661971831" y="181.68253968253967" width="60.84507042253521" height="12.31746031746033" fill="#1192e8"></rect><g id="family-render-path-axes" class="ordinal-axes"><line x1="0" y1="194" x2="480" y2="194" stroke="#e0e0e0" stroke-width="1"></line><g transform="translate(37.183098591549296,194)"><line y2="5" stroke="#e0e0e0" stroke-width="1"></line><text y="18" text-anchor="middle" font-size="12" fill="#525252" font-family="&#x27;IBM Plex Sans&#x27;, &#x27;Helvetica Neue&#x27;, Arial, sans-serif">physics</text></g><g transform="translate(104.78873239436619,194)"><line y2="5" stroke="#e0e0e0" stroke-width="1"></line><text y="18" text-anchor="middle" font-size="12" fill="#525252" font-family="&#x27;IBM Plex Sans&#x27;, &#x27;Helvetica Neue&#x27;, Arial, sans-serif">xy</text></g><g transform="translate(172.3943661971831,194)"><line y2="5" stroke="#e0e0e0" stroke-width="1"></line><text y="18" text-anchor="middle" font-size="12" fill="#525252" font-family="&#x27;IBM Plex Sans&#x27;, &#x27;Helvetica Neue&#x27;, Arial, sans-serif">ordinal</text></g><g transform="translate(240,194)"><line y2="5" stroke="#e0e0e0" stroke-width="1"></line><text y="18" text-anchor="middle" font-size="12" fill="#525252" font-family="&#x27;IBM Plex Sans&#x27;, &#x27;Helvetica Neue&#x27;, Arial, sans-serif">network</text></g><g transform="translate(307.6056338028169,194)"><line y2="5" stroke="#e0e0e0" stroke-width="1"></line><text y="18" text-anchor="middle" font-size="12" fill="#525252" font-family="&#x27;IBM Plex Sans&#x27;, &#x27;Helvetica Neue&#x27;, Arial, sans-serif">geo</text></g><g transform="translate(375.2112676056338,194)"><line y2="5" stroke="#e0e0e0" stroke-width="1"></line><text y="18" text-anchor="middle" font-size="12" fill="#525252" font-family="&#x27;IBM Plex Sans&#x27;, &#x27;Helvetica Neue&#x27;, Arial, sans-serif">realtime</text></g><g transform="translate(442.8169014084507,194)"><line y2="5" stroke="#e0e0e0" stroke-width="1"></line><text y="18" text-anchor="middle" font-size="12" fill="#525252" font-family="&#x27;IBM Plex Sans&#x27;, &#x27;Helvetica Neue&#x27;, Arial, sans-serif">value</text></g><line x1="0" y1="0" x2="0" y2="194" stroke="#e0e0e0" stroke-width="1"></line><g transform="translate(0,194)"><line x2="-5" stroke="#e0e0e0" stroke-width="1"></line><text x="-8" text-anchor="end" dominant-baseline="middle" font-size="12" fill="#525252" font-family="&#x27;IBM Plex Sans&#x27;, &#x27;Helvetica Neue&#x27;, Arial, sans-serif">0</text></g><g transform="translate(0,169.36507936507937)"><line x2="-5" stroke="#e0e0e0" stroke-width="1"></line><text x="-8" text-anchor="end" dominant-baseline="middle" font-size="12" fill="#525252" font-family="&#x27;IBM Plex Sans&#x27;, &#x27;Helvetica Neue&#x27;, Arial, sans-serif">2</text></g><g transform="translate(0,144.73015873015873)"><line x2="-5" stroke="#e0e0e0" stroke-width="1"></line><text x="-8" text-anchor="end" dominant-baseline="middle" font-size="12" fill="#525252" font-family="&#x27;IBM Plex Sans&#x27;, &#x27;Helvetica Neue&#x27;, Arial, sans-serif">4</text></g><g transform="translate(0,120.0952380952381)"><line x2="-5" stroke="#e0e0e0" stroke-width="1"></line><text x="-8" text-anchor="end" dominant-baseline="middle" font-size="12" fill="#525252" font-family="&#x27;IBM Plex Sans&#x27;, &#x27;Helvetica Neue&#x27;, Arial, sans-serif">6</text></g><g transform="translate(0,95.46031746031747)"><line x2="-5" stroke="#e0e0e0" stroke-width="1"></line><text x="-8" text-anchor="end" dominant-baseline="middle" font-size="12" fill="#525252" font-family="&#x27;IBM Plex Sans&#x27;, &#x27;Helvetica Neue&#x27;, Arial, sans-serif">8</text></g><g transform="translate(0,70.82539682539684)"><line x2="-5" stroke="#e0e0e0" stroke-width="1"></line><text x="-8" text-anchor="end" dominant-baseline="middle" font-size="12" fill="#525252" font-family="&#x27;IBM Plex Sans&#x27;, &#x27;Helvetica Neue&#x27;, Arial, sans-serif">10</text></g><g transform="translate(0,46.1904761904762)"><line x2="-5" stroke="#e0e0e0" stroke-width="1"></line><text x="-8" text-anchor="end" dominant-baseline="middle" font-size="12" fill="#525252" font-family="&#x27;IBM Plex Sans&#x27;, &#x27;Helvetica Neue&#x27;, Arial, sans-serif">12</text></g><g transform="translate(0,21.555555555555564)"><line x2="-5" stroke="#e0e0e0" stroke-width="1"></line><text x="-8" text-anchor="end" dominant-baseline="middle" font-size="12" fill="#525252" font-family="&#x27;IBM Plex Sans&#x27;, &#x27;Helvetica Neue&#x27;, Arial, sans-serif">14</text></g></g></g><g id="legend"><g class="semiotic-legend" transform="translate(532,14)"><line x1="0" y1="29" x2="100" y2="29" stroke="gray"></line><g transform="translate(0,37)"><rect width="16" height="16" fill="#6929c4" rx="0"></rect><text x="22" y="8" dominant-baseline="central" font-size="12" fill="#161616" font-family="&#x27;IBM Plex Sans&#x27;, &#x27;Helvetica Neue&#x27;, Arial, sans-serif">SSR</text></g><g transform="translate(0,59)"><rect width="16" height="16" fill="#1192e8" rx="0"></rect><text x="22" y="8" dominant-baseline="central" font-size="12" fill="#161616" font-family="&#x27;IBM Plex Sans&#x27;, &#x27;Helvetica Neue&#x27;, Arial, sans-serif">Browser/live</text></g></g></g></svg></g>
      <text x="20" y="338" font-size="10" fill="#525252">Stacked by SSR-renderable vs browser/live-only chart count</text>
    </g>
  
    <g transform="translate(615,432)">
      <rect width="573" height="354" rx="6" fill="#ffffff" stroke="#c6c6c6" />
      <text x="20" y="28" font-size="17" font-weight="700" fill="#161616">Docs surface growth</text>
      <text x="20" y="49" font-size="11" fill="#525252">15 route snapshots; category moves are reflected in each release</text>
      <g transform="translate(12,62)"><svg xmlns="http://www.w3.org/2000/svg" class="stream-xy-frame" width="544" height="218" role="img" aria-labelledby="docs-growth-desc" style="font-family:&#x27;IBM Plex Sans&#x27;, &#x27;Helvetica Neue&#x27;, Arial, sans-serif"><desc id="docs-growth-desc">Stacked area chart showing cumulative routed documentation pages by category across release snapshots.</desc><g id="docs-growth-data-area" transform="translate(42,14)"><g id="docs-growth-grid" class="semiotic-grid" opacity="0.8"><line x1="0" y1="0" x2="0" y2="168" stroke="#e0e0e0" stroke-width="0.5"></line><line x1="68" y1="0" x2="68" y2="168" stroke="#e0e0e0" stroke-width="0.5"></line><line x1="136" y1="0" x2="136" y2="168" stroke="#e0e0e0" stroke-width="0.5"></line><line x1="204" y1="0" x2="204" y2="168" stroke="#e0e0e0" stroke-width="0.5"></line><line x1="272" y1="0" x2="272" y2="168" stroke="#e0e0e0" stroke-width="0.5"></line><line x1="340" y1="0" x2="340" y2="168" stroke="#e0e0e0" stroke-width="0.5"></line><line x1="408" y1="0" x2="408" y2="168" stroke="#e0e0e0" stroke-width="0.5"></line><line x1="476" y1="0" x2="476" y2="168" stroke="#e0e0e0" stroke-width="0.5"></line><line x1="0" y1="168" x2="476" y2="168" stroke="#e0e0e0" stroke-width="0.5"></line><line x1="0" y1="121.15114333519243" x2="476" y2="121.15114333519243" stroke="#e0e0e0" stroke-width="0.5"></line><line x1="0" y1="74.30228667038483" x2="476" y2="74.30228667038483" stroke="#e0e0e0" stroke-width="0.5"></line><line x1="0" y1="27.453430005577253" x2="476" y2="27.453430005577253" stroke="#e0e0e0" stroke-width="0.5"></line></g><defs><clipPath id="cfg6sf2-plot-clip"><rect x="0" y="0" width="476" height="168"></rect></clipPath></defs><g clip-path="url(#cfg6sf2-plot-clip)"><path d="M0,156.756C11.333,156.444,22.667,156.132,34,155.819C45.333,155.507,56.667,154.882,68,154.882C79.333,154.882,90.667,154.882,102,154.882C113.333,154.882,124.667,154.882,136,154.882C147.333,154.882,158.667,154.258,170,153.945C181.333,153.633,192.667,153.008,204,153.008C215.333,153.008,226.667,153.008,238,153.008C249.333,153.008,260.667,153.008,272,153.008C283.333,153.008,294.667,153.008,306,153.008C317.333,153.008,328.667,153.008,340,153.008C351.333,153.008,362.667,153.008,374,153.008C385.333,153.008,396.667,153.008,408,153.008C419.333,153.008,430.667,153.008,442,153.008C453.333,153.008,464.667,153.008,476,153.008L476,168C464.667,168,453.333,168,442,168C430.667,168,419.333,168,408,168C396.667,168,385.333,168,374,168C362.667,168,351.333,168,340,168C328.667,168,317.333,168,306,168C294.667,168,283.333,168,272,168C260.667,168,249.333,168,238,168C226.667,168,215.333,168,204,168C192.667,168,181.333,168,170,168C158.667,168,147.333,168,136,168C124.667,168,113.333,168,102,168C90.667,168,79.333,168,68,168C56.667,168,45.333,168,34,168C22.667,168,11.333,168,0,168Z" fill="#0f62fe" fill-opacity="1" stroke="none"></path><path d="M0,156.756C11.333,156.444,22.667,156.132,34,155.819C45.333,155.507,56.667,154.882,68,154.882C79.333,154.882,90.667,154.882,102,154.882C113.333,154.882,124.667,154.882,136,154.882C147.333,154.882,158.667,154.258,170,153.945C181.333,153.633,192.667,153.008,204,153.008C215.333,153.008,226.667,153.008,238,153.008C249.333,153.008,260.667,153.008,272,153.008C283.333,153.008,294.667,153.008,306,153.008C317.333,153.008,328.667,153.008,340,153.008C351.333,153.008,362.667,153.008,374,153.008C385.333,153.008,396.667,153.008,408,153.008C419.333,153.008,430.667,153.008,442,153.008C453.333,153.008,464.667,153.008,476,153.008" fill="none" stroke="#0f62fe" stroke-width="2"></path><path d="M0,146.45C11.333,146.215,22.667,145.981,34,145.513C45.333,145.044,56.667,144.419,68,143.639C79.333,142.858,90.667,140.828,102,140.828C113.333,140.828,124.667,140.828,136,140.828C147.333,140.828,158.667,140.203,170,139.891C181.333,139.578,192.667,138.954,204,138.954C215.333,138.954,226.667,138.954,238,138.954C249.333,138.954,260.667,138.954,272,138.954C283.333,138.954,294.667,138.017,306,138.017C317.333,138.017,328.667,138.017,340,138.017C351.333,138.017,362.667,138.017,374,138.017C385.333,138.017,396.667,138.017,408,138.017C419.333,138.017,430.667,138.017,442,138.017C453.333,138.017,464.667,138.017,476,138.017L476,153.008C464.667,153.008,453.333,153.008,442,153.008C430.667,153.008,419.333,153.008,408,153.008C396.667,153.008,385.333,153.008,374,153.008C362.667,153.008,351.333,153.008,340,153.008C328.667,153.008,317.333,153.008,306,153.008C294.667,153.008,283.333,153.008,272,153.008C260.667,153.008,249.333,153.008,238,153.008C226.667,153.008,215.333,153.008,204,153.008C192.667,153.008,181.333,153.633,170,153.945C158.667,154.258,147.333,154.882,136,154.882C124.667,154.882,113.333,154.882,102,154.882C90.667,154.882,79.333,154.882,68,154.882C56.667,154.882,45.333,155.507,34,155.819C22.667,156.132,11.333,156.444,0,156.756Z" fill="#4589ff" fill-opacity="1" stroke="none"></path><path d="M0,146.45C11.333,146.215,22.667,145.981,34,145.513C45.333,145.044,56.667,144.419,68,143.639C79.333,142.858,90.667,140.828,102,140.828C113.333,140.828,124.667,140.828,136,140.828C147.333,140.828,158.667,140.203,170,139.891C181.333,139.578,192.667,138.954,204,138.954C215.333,138.954,226.667,138.954,238,138.954C249.333,138.954,260.667,138.954,272,138.954C283.333,138.954,294.667,138.017,306,138.017C317.333,138.017,328.667,138.017,340,138.017C351.333,138.017,362.667,138.017,374,138.017C385.333,138.017,396.667,138.017,408,138.017C419.333,138.017,430.667,138.017,442,138.017C453.333,138.017,464.667,138.017,476,138.017" fill="none" stroke="#4589ff" stroke-width="2"></path><path d="M0,140.828C11.333,140.203,22.667,139.578,34,138.954C45.333,138.329,56.667,137.861,68,137.08C79.333,136.299,90.667,134.269,102,134.269C113.333,134.269,124.667,134.269,136,134.269C147.333,134.269,158.667,133.8,170,133.332C181.333,132.863,192.667,131.458,204,131.458C215.333,131.458,226.667,131.458,238,131.458C249.333,131.458,260.667,131.458,272,131.458C283.333,131.458,294.667,130.521,306,130.521C317.333,130.521,328.667,130.521,340,130.521C351.333,130.521,362.667,130.521,374,130.521C385.333,130.521,396.667,130.521,408,130.521C419.333,130.521,430.667,130.521,442,130.521C453.333,130.521,464.667,130.521,476,130.521L476,138.017C464.667,138.017,453.333,138.017,442,138.017C430.667,138.017,419.333,138.017,408,138.017C396.667,138.017,385.333,138.017,374,138.017C362.667,138.017,351.333,138.017,340,138.017C328.667,138.017,317.333,138.017,306,138.017C294.667,138.017,283.333,138.954,272,138.954C260.667,138.954,249.333,138.954,238,138.954C226.667,138.954,215.333,138.954,204,138.954C192.667,138.954,181.333,139.578,170,139.891C158.667,140.203,147.333,140.828,136,140.828C124.667,140.828,113.333,140.828,102,140.828C90.667,140.828,79.333,142.858,68,143.639C56.667,144.419,45.333,145.044,34,145.513C22.667,145.981,11.333,146.215,0,146.45Z" fill="#78a9ff" fill-opacity="1" stroke="none"></path><path d="M0,140.828C11.333,140.203,22.667,139.578,34,138.954C45.333,138.329,56.667,137.861,68,137.08C79.333,136.299,90.667,134.269,102,134.269C113.333,134.269,124.667,134.269,136,134.269C147.333,134.269,158.667,133.8,170,133.332C181.333,132.863,192.667,131.458,204,131.458C215.333,131.458,226.667,131.458,238,131.458C249.333,131.458,260.667,131.458,272,131.458C283.333,131.458,294.667,130.521,306,130.521C317.333,130.521,328.667,130.521,340,130.521C351.333,130.521,362.667,130.521,374,130.521C385.333,130.521,396.667,130.521,408,130.521C419.333,130.521,430.667,130.521,442,130.521C453.333,130.521,464.667,130.521,476,130.521" fill="none" stroke="#78a9ff" stroke-width="2"></path><path d="M34,134.269C45.333,133.722,56.667,133.176,68,132.395C79.333,131.614,90.667,129.584,102,129.584C113.333,129.584,124.667,129.584,136,129.584C147.333,129.584,158.667,129.115,170,128.647C181.333,128.178,192.667,126.773,204,126.773C215.333,126.773,226.667,126.773,238,126.773C249.333,126.773,260.667,126.773,272,126.773C283.333,126.773,294.667,125.836,306,125.836C317.333,125.836,328.667,125.836,340,125.836C351.333,125.836,362.667,125.836,374,125.836C385.333,125.836,396.667,125.836,408,125.836C419.333,125.836,430.667,125.836,442,125.836C453.333,125.836,464.667,125.836,476,125.836L476,130.521C464.667,130.521,453.333,130.521,442,130.521C430.667,130.521,419.333,130.521,408,130.521C396.667,130.521,385.333,130.521,374,130.521C362.667,130.521,351.333,130.521,340,130.521C328.667,130.521,317.333,130.521,306,130.521C294.667,130.521,283.333,131.458,272,131.458C260.667,131.458,249.333,131.458,238,131.458C226.667,131.458,215.333,131.458,204,131.458C192.667,131.458,181.333,132.863,170,133.332C158.667,133.8,147.333,134.269,136,134.269C124.667,134.269,113.333,134.269,102,134.269C90.667,134.269,79.333,136.299,68,137.08C56.667,137.861,45.333,138.407,34,138.954Z" fill="#a6c8ff" fill-opacity="1" stroke="none"></path><path d="M34,134.269C45.333,133.722,56.667,133.176,68,132.395C79.333,131.614,90.667,129.584,102,129.584C113.333,129.584,124.667,129.584,136,129.584C147.333,129.584,158.667,129.115,170,128.647C181.333,128.178,192.667,126.773,204,126.773C215.333,126.773,226.667,126.773,238,126.773C249.333,126.773,260.667,126.773,272,126.773C283.333,126.773,294.667,125.836,306,125.836C317.333,125.836,328.667,125.836,340,125.836C351.333,125.836,362.667,125.836,374,125.836C385.333,125.836,396.667,125.836,408,125.836C419.333,125.836,430.667,125.836,442,125.836C453.333,125.836,464.667,125.836,476,125.836" fill="none" stroke="#a6c8ff" stroke-width="2"></path><path d="M0,139.891C11.333,137.236,22.667,134.581,34,133.332C45.333,132.083,56.667,132.239,68,131.458C79.333,130.677,90.667,128.647,102,128.647C113.333,128.647,124.667,128.647,136,128.647C147.333,128.647,158.667,128.178,170,127.71C181.333,127.241,192.667,125.836,204,125.836C215.333,125.836,226.667,125.836,238,125.836C249.333,125.836,260.667,125.836,272,125.836C283.333,125.836,294.667,122.088,306,122.088C317.333,122.088,328.667,122.088,340,122.088C351.333,122.088,362.667,122.088,374,122.088C385.333,122.088,396.667,122.088,408,122.088C419.333,122.088,430.667,122.088,442,122.088C453.333,122.088,464.667,117.403,476,112.718L476,117.403C464.667,121.62,453.333,125.836,442,125.836C430.667,125.836,419.333,125.836,408,125.836C396.667,125.836,385.333,125.836,374,125.836C362.667,125.836,351.333,125.836,340,125.836C328.667,125.836,317.333,125.836,306,125.836C294.667,125.836,283.333,126.773,272,126.773C260.667,126.773,249.333,126.773,238,126.773C226.667,126.773,215.333,126.773,204,126.773C192.667,126.773,181.333,128.178,170,128.647C158.667,129.115,147.333,129.584,136,129.584C124.667,129.584,113.333,129.584,102,129.584C90.667,129.584,79.333,131.614,68,132.395C56.667,133.176,45.333,133.02,34,134.269C22.667,135.518,11.333,138.173,0,140.828Z" fill="#8a3ffc" fill-opacity="1" stroke="none"></path><path d="M0,139.891C11.333,137.236,22.667,134.581,34,133.332C45.333,132.083,56.667,132.239,68,131.458C79.333,130.677,90.667,128.647,102,128.647C113.333,128.647,124.667,128.647,136,128.647C147.333,128.647,158.667,128.178,170,127.71C181.333,127.241,192.667,125.836,204,125.836C215.333,125.836,226.667,125.836,238,125.836C249.333,125.836,260.667,125.836,272,125.836C283.333,125.836,294.667,122.088,306,122.088C317.333,122.088,328.667,122.088,340,122.088C351.333,122.088,362.667,122.088,374,122.088C385.333,122.088,396.667,122.088,408,122.088C419.333,122.088,430.667,122.088,442,122.088C453.333,122.088,464.667,117.403,476,112.718" fill="none" stroke="#8a3ffc" stroke-width="2"></path><path d="M0,138.954C11.333,135.83,22.667,132.707,34,131.458C45.333,130.209,56.667,130.365,68,129.584C79.333,128.803,90.667,126.773,102,126.773C113.333,126.773,124.667,126.773,136,126.773C147.333,126.773,158.667,126.305,170,125.836C181.333,125.368,192.667,123.962,204,123.962C215.333,123.962,226.667,123.962,238,123.962C249.333,123.962,260.667,123.962,272,123.962C283.333,123.962,294.667,118.34,306,118.34C317.333,118.34,328.667,118.34,340,118.34C351.333,118.34,362.667,118.34,374,118.34C385.333,118.34,396.667,118.34,408,118.34C419.333,118.34,430.667,118.34,442,118.34C453.333,118.34,464.667,113.655,476,108.97L476,112.718C464.667,117.403,453.333,122.088,442,122.088C430.667,122.088,419.333,122.088,408,122.088C396.667,122.088,385.333,122.088,374,122.088C362.667,122.088,351.333,122.088,340,122.088C328.667,122.088,317.333,122.088,306,122.088C294.667,122.088,283.333,125.836,272,125.836C260.667,125.836,249.333,125.836,238,125.836C226.667,125.836,215.333,125.836,204,125.836C192.667,125.836,181.333,127.241,170,127.71C158.667,128.178,147.333,128.647,136,128.647C124.667,128.647,113.333,128.647,102,128.647C90.667,128.647,79.333,130.677,68,131.458C56.667,132.239,45.333,132.083,34,133.332C22.667,134.581,11.333,137.236,0,139.891Z" fill="#a56eff" fill-opacity="1" stroke="none"></path><path d="M0,138.954C11.333,135.83,22.667,132.707,34,131.458C45.333,130.209,56.667,130.365,68,129.584C79.333,128.803,90.667,126.773,102,126.773C113.333,126.773,124.667,126.773,136,126.773C147.333,126.773,158.667,126.305,170,125.836C181.333,125.368,192.667,123.962,204,123.962C215.333,123.962,226.667,123.962,238,123.962C249.333,123.962,260.667,123.962,272,123.962C283.333,123.962,294.667,118.34,306,118.34C317.333,118.34,328.667,118.34,340,118.34C351.333,118.34,362.667,118.34,374,118.34C385.333,118.34,396.667,118.34,408,118.34C419.333,118.34,430.667,118.34,442,118.34C453.333,118.34,464.667,113.655,476,108.97" fill="none" stroke="#a56eff" stroke-width="2"></path><path d="M204,123.025C215.333,123.025,226.667,123.025,238,123.025C249.333,123.025,260.667,122.088,272,120.214C283.333,118.34,294.667,107.096,306,107.096C317.333,107.096,328.667,107.096,340,107.096C351.333,107.096,362.667,107.096,374,107.096C385.333,107.096,396.667,107.096,408,107.096C419.333,107.096,430.667,107.096,442,107.096C453.333,107.096,464.667,101.006,476,94.916L476,108.97C464.667,113.655,453.333,118.34,442,118.34C430.667,118.34,419.333,118.34,408,118.34C396.667,118.34,385.333,118.34,374,118.34C362.667,118.34,351.333,118.34,340,118.34C328.667,118.34,317.333,118.34,306,118.34C294.667,118.34,283.333,123.962,272,123.962C260.667,123.962,249.333,123.962,238,123.962C226.667,123.962,215.333,123.962,204,123.962Z" fill="#be95ff" fill-opacity="1" stroke="none"></path><path d="M204,123.025C215.333,123.025,226.667,123.025,238,123.025C249.333,123.025,260.667,122.088,272,120.214C283.333,118.34,294.667,107.096,306,107.096C317.333,107.096,328.667,107.096,340,107.096C351.333,107.096,362.667,107.096,374,107.096C385.333,107.096,396.667,107.096,408,107.096C419.333,107.096,430.667,107.096,442,107.096C453.333,107.096,464.667,101.006,476,94.916" fill="none" stroke="#be95ff" stroke-width="2"></path><path d="M0,137.08C11.333,133.956,22.667,130.833,34,129.584C45.333,128.335,56.667,128.491,68,127.71C79.333,126.929,90.667,124.899,102,124.899C113.333,124.899,124.667,124.899,136,124.899C147.333,124.899,158.667,124.587,170,123.962C181.333,123.337,192.667,121.151,204,121.151C215.333,121.151,226.667,121.151,238,121.151C249.333,121.151,260.667,120.214,272,118.34C283.333,116.466,294.667,105.223,306,105.223C317.333,105.223,328.667,105.223,340,105.223C351.333,105.223,362.667,105.223,374,105.223C385.333,105.223,396.667,105.223,408,105.223C419.333,105.223,430.667,105.223,442,105.223C453.333,105.223,464.667,95.853,476,86.483L476,94.916C464.667,101.006,453.333,107.096,442,107.096C430.667,107.096,419.333,107.096,408,107.096C396.667,107.096,385.333,107.096,374,107.096C362.667,107.096,351.333,107.096,340,107.096C328.667,107.096,317.333,107.096,306,107.096C294.667,107.096,283.333,118.34,272,120.214C260.667,122.088,249.333,123.025,238,123.025C226.667,123.025,215.333,123.025,204,123.025C192.667,123.025,181.333,125.211,170,125.836C158.667,126.461,147.333,126.773,136,126.773C124.667,126.773,113.333,126.773,102,126.773C90.667,126.773,79.333,128.803,68,129.584C56.667,130.365,45.333,130.209,34,131.458C22.667,132.707,11.333,135.83,0,138.954Z" fill="#d4bbff" fill-opacity="1" stroke="none"></path><path d="M0,137.08C11.333,133.956,22.667,130.833,34,129.584C45.333,128.335,56.667,128.491,68,127.71C79.333,126.929,90.667,124.899,102,124.899C113.333,124.899,124.667,124.899,136,124.899C147.333,124.899,158.667,124.587,170,123.962C181.333,123.337,192.667,121.151,204,121.151C215.333,121.151,226.667,121.151,238,121.151C249.333,121.151,260.667,120.214,272,118.34C283.333,116.466,294.667,105.223,306,105.223C317.333,105.223,328.667,105.223,340,105.223C351.333,105.223,362.667,105.223,374,105.223C385.333,105.223,396.667,105.223,408,105.223C419.333,105.223,430.667,105.223,442,105.223C453.333,105.223,464.667,95.853,476,86.483" fill="none" stroke="#d4bbff" stroke-width="2"></path><path d="M0,124.899C11.333,121.307,22.667,117.716,34,116.466C45.333,115.217,56.667,115.529,68,114.592C79.333,113.655,90.667,110.844,102,110.844C113.333,110.844,124.667,110.844,136,110.844C147.333,110.844,158.667,109.751,170,108.97C181.333,108.19,192.667,106.16,204,106.16C215.333,106.16,226.667,106.16,238,106.16C249.333,106.16,260.667,105.535,272,104.286C283.333,103.036,294.667,91.168,306,91.168C317.333,91.168,328.667,91.168,340,91.168C351.333,91.168,362.667,91.168,374,91.168C385.333,91.168,396.667,91.168,408,91.168C419.333,91.168,430.667,91.168,442,91.168C453.333,91.168,464.667,77.582,476,63.996L476,86.483C464.667,95.853,453.333,105.223,442,105.223C430.667,105.223,419.333,105.223,408,105.223C396.667,105.223,385.333,105.223,374,105.223C362.667,105.223,351.333,105.223,340,105.223C328.667,105.223,317.333,105.223,306,105.223C294.667,105.223,283.333,116.466,272,118.34C260.667,120.214,249.333,121.151,238,121.151C226.667,121.151,215.333,121.151,204,121.151C192.667,121.151,181.333,123.337,170,123.962C158.667,124.587,147.333,124.899,136,124.899C124.667,124.899,113.333,124.899,102,124.899C90.667,124.899,79.333,126.929,68,127.71C56.667,128.491,45.333,128.335,34,129.584C22.667,130.833,11.333,133.956,0,137.08Z" fill="#007d79" fill-opacity="1" stroke="none"></path><path d="M0,124.899C11.333,121.307,22.667,117.716,34,116.466C45.333,115.217,56.667,115.529,68,114.592C79.333,113.655,90.667,110.844,102,110.844C113.333,110.844,124.667,110.844,136,110.844C147.333,110.844,158.667,109.751,170,108.97C181.333,108.19,192.667,106.16,204,106.16C215.333,106.16,226.667,106.16,238,106.16C249.333,106.16,260.667,105.535,272,104.286C283.333,103.036,294.667,91.168,306,91.168C317.333,91.168,328.667,91.168,340,91.168C351.333,91.168,362.667,91.168,374,91.168C385.333,91.168,396.667,91.168,408,91.168C419.333,91.168,430.667,91.168,442,91.168C453.333,91.168,464.667,77.582,476,63.996" fill="none" stroke="#007d79" stroke-width="2"></path><path d="M0,123.962C11.333,120.761,22.667,117.559,34,115.529C45.333,113.499,56.667,113.031,68,111.781C79.333,110.532,90.667,108.033,102,108.033C113.333,108.033,124.667,108.033,136,108.033C147.333,108.033,158.667,106.16,170,105.223C181.333,104.286,192.667,102.412,204,102.412C215.333,102.412,226.667,102.412,238,102.412C249.333,102.412,260.667,101.787,272,100.538C283.333,99.288,294.667,87.42,306,87.42C317.333,87.42,328.667,87.42,340,87.42C351.333,87.42,362.667,87.42,374,87.42C385.333,87.42,396.667,87.42,408,87.42C419.333,87.42,430.667,87.42,442,87.42C453.333,87.42,464.667,73.834,476,60.248L476,63.996C464.667,77.582,453.333,91.168,442,91.168C430.667,91.168,419.333,91.168,408,91.168C396.667,91.168,385.333,91.168,374,91.168C362.667,91.168,351.333,91.168,340,91.168C328.667,91.168,317.333,91.168,306,91.168C294.667,91.168,283.333,103.036,272,104.286C260.667,105.535,249.333,106.16,238,106.16C226.667,106.16,215.333,106.16,204,106.16C192.667,106.16,181.333,108.19,170,108.97C158.667,109.751,147.333,110.844,136,110.844C124.667,110.844,113.333,110.844,102,110.844C90.667,110.844,79.333,113.655,68,114.592C56.667,115.529,45.333,115.217,34,116.466C22.667,117.716,11.333,121.307,0,124.899Z" fill="#42be65" fill-opacity="1" stroke="none"></path><path d="M0,123.962C11.333,120.761,22.667,117.559,34,115.529C45.333,113.499,56.667,113.031,68,111.781C79.333,110.532,90.667,108.033,102,108.033C113.333,108.033,124.667,108.033,136,108.033C147.333,108.033,158.667,106.16,170,105.223C181.333,104.286,192.667,102.412,204,102.412C215.333,102.412,226.667,102.412,238,102.412C249.333,102.412,260.667,101.787,272,100.538C283.333,99.288,294.667,87.42,306,87.42C317.333,87.42,328.667,87.42,340,87.42C351.333,87.42,362.667,87.42,374,87.42C385.333,87.42,396.667,87.42,408,87.42C419.333,87.42,430.667,87.42,442,87.42C453.333,87.42,464.667,73.834,476,60.248" fill="none" stroke="#42be65" stroke-width="2"></path><path d="M0,111.781C11.333,108.58,22.667,105.379,34,103.349C45.333,101.318,56.667,100.85,68,99.601C79.333,98.351,90.667,95.853,102,95.853C113.333,95.853,124.667,95.853,136,95.853C147.333,95.853,158.667,94.76,170,93.979C181.333,93.198,192.667,91.168,204,91.168C215.333,91.168,226.667,91.168,238,91.168C249.333,91.168,260.667,90.543,272,89.294C283.333,88.045,294.667,76.176,306,76.176C317.333,76.176,328.667,76.176,340,76.176C351.333,76.176,362.667,76.176,374,76.176C385.333,76.176,396.667,76.176,408,76.176C419.333,76.176,430.667,76.176,442,76.176C453.333,76.176,464.667,63.059,476,49.941L476,60.248C464.667,73.834,453.333,87.42,442,87.42C430.667,87.42,419.333,87.42,408,87.42C396.667,87.42,385.333,87.42,374,87.42C362.667,87.42,351.333,87.42,340,87.42C328.667,87.42,317.333,87.42,306,87.42C294.667,87.42,283.333,99.288,272,100.538C260.667,101.787,249.333,102.412,238,102.412C226.667,102.412,215.333,102.412,204,102.412C192.667,102.412,181.333,104.286,170,105.223C158.667,106.16,147.333,108.033,136,108.033C124.667,108.033,113.333,108.033,102,108.033C90.667,108.033,79.333,110.532,68,111.781C56.667,113.031,45.333,113.499,34,115.529C22.667,117.559,11.333,120.761,0,123.962Z" fill="#6fdc8c" fill-opacity="1" stroke="none"></path><path d="M0,111.781C11.333,108.58,22.667,105.379,34,103.349C45.333,101.318,56.667,100.85,68,99.601C79.333,98.351,90.667,95.853,102,95.853C113.333,95.853,124.667,95.853,136,95.853C147.333,95.853,158.667,94.76,170,93.979C181.333,93.198,192.667,91.168,204,91.168C215.333,91.168,226.667,91.168,238,91.168C249.333,91.168,260.667,90.543,272,89.294C283.333,88.045,294.667,76.176,306,76.176C317.333,76.176,328.667,76.176,340,76.176C351.333,76.176,362.667,76.176,374,76.176C385.333,76.176,396.667,76.176,408,76.176C419.333,76.176,430.667,76.176,442,76.176C453.333,76.176,464.667,63.059,476,49.941" fill="none" stroke="#6fdc8c" stroke-width="2"></path><path d="M0,108.97C11.333,104.129,22.667,99.288,34,96.79C45.333,94.291,56.667,94.291,68,93.042C79.333,91.793,90.667,89.294,102,89.294C113.333,89.294,124.667,89.294,136,89.294C147.333,89.294,158.667,88.201,170,87.42C181.333,86.639,192.667,84.609,204,84.609C215.333,84.609,226.667,85.546,238,85.546C249.333,85.546,260.667,84.921,272,83.672C283.333,82.423,294.667,70.554,306,70.554C317.333,70.554,328.667,70.554,340,70.554C351.333,70.554,362.667,70.554,374,70.554C385.333,70.554,396.667,70.554,408,70.554C419.333,70.554,430.667,70.242,442,69.617C453.333,68.993,464.667,55.719,476,42.445L476,49.941C464.667,63.059,453.333,76.176,442,76.176C430.667,76.176,419.333,76.176,408,76.176C396.667,76.176,385.333,76.176,374,76.176C362.667,76.176,351.333,76.176,340,76.176C328.667,76.176,317.333,76.176,306,76.176C294.667,76.176,283.333,88.045,272,89.294C260.667,90.543,249.333,91.168,238,91.168C226.667,91.168,215.333,91.168,204,91.168C192.667,91.168,181.333,93.198,170,93.979C158.667,94.76,147.333,95.853,136,95.853C124.667,95.853,113.333,95.853,102,95.853C90.667,95.853,79.333,98.351,68,99.601C56.667,100.85,45.333,101.318,34,103.349C22.667,105.379,11.333,108.58,0,111.781Z" fill="#a7f0ba" fill-opacity="1" stroke="none"></path><path d="M0,108.97C11.333,104.129,22.667,99.288,34,96.79C45.333,94.291,56.667,94.291,68,93.042C79.333,91.793,90.667,89.294,102,89.294C113.333,89.294,124.667,89.294,136,89.294C147.333,89.294,158.667,88.201,170,87.42C181.333,86.639,192.667,84.609,204,84.609C215.333,84.609,226.667,85.546,238,85.546C249.333,85.546,260.667,84.921,272,83.672C283.333,82.423,294.667,70.554,306,70.554C317.333,70.554,328.667,70.554,340,70.554C351.333,70.554,362.667,70.554,374,70.554C385.333,70.554,396.667,70.554,408,70.554C419.333,70.554,430.667,70.242,442,69.617C453.333,68.993,464.667,55.719,476,42.445" fill="none" stroke="#a7f0ba" stroke-width="2"></path><path d="M0,93.979C11.333,87.732,22.667,81.486,34,78.987C45.333,76.489,56.667,76.489,68,75.239C79.333,73.99,90.667,72.116,102,71.491C113.333,70.867,124.667,71.023,136,70.554C147.333,70.086,158.667,69.461,170,68.68C181.333,67.9,192.667,65.869,204,65.869C215.333,65.869,226.667,66.806,238,66.806C249.333,66.806,260.667,66.182,272,64.933C283.333,63.683,294.667,52.752,306,52.752C317.333,52.752,328.667,52.752,340,52.752C351.333,52.752,362.667,52.752,374,52.752C385.333,52.752,396.667,52.752,408,52.752C419.333,52.752,430.667,52.439,442,51.815C453.333,51.19,464.667,37.916,476,24.642L476,42.445C464.667,55.719,453.333,68.993,442,69.617C430.667,70.242,419.333,70.554,408,70.554C396.667,70.554,385.333,70.554,374,70.554C362.667,70.554,351.333,70.554,340,70.554C328.667,70.554,317.333,70.554,306,70.554C294.667,70.554,283.333,82.423,272,83.672C260.667,84.921,249.333,85.546,238,85.546C226.667,85.546,215.333,84.609,204,84.609C192.667,84.609,181.333,86.639,170,87.42C158.667,88.201,147.333,89.294,136,89.294C124.667,89.294,113.333,89.294,102,89.294C90.667,89.294,79.333,91.793,68,93.042C56.667,94.291,45.333,94.291,34,96.79C22.667,99.288,11.333,104.129,0,108.97Z" fill="#d02670" fill-opacity="1" stroke="none"></path><path d="M0,93.979C11.333,87.732,22.667,81.486,34,78.987C45.333,76.489,56.667,76.489,68,75.239C79.333,73.99,90.667,72.116,102,71.491C113.333,70.867,124.667,71.023,136,70.554C147.333,70.086,158.667,69.461,170,68.68C181.333,67.9,192.667,65.869,204,65.869C215.333,65.869,226.667,66.806,238,66.806C249.333,66.806,260.667,66.182,272,64.933C283.333,63.683,294.667,52.752,306,52.752C317.333,52.752,328.667,52.752,340,52.752C351.333,52.752,362.667,52.752,374,52.752C385.333,52.752,396.667,52.752,408,52.752C419.333,52.752,430.667,52.439,442,51.815C453.333,51.19,464.667,37.916,476,24.642" fill="none" stroke="#d02670" stroke-width="2"></path><path d="M0,93.042C11.333,86.327,22.667,79.612,34,77.113C45.333,74.615,56.667,75.395,68,73.365C79.333,71.335,90.667,65.557,102,64.933C113.333,64.308,124.667,64.464,136,63.996C147.333,63.527,158.667,62.902,170,62.122C181.333,61.341,192.667,59.311,204,59.311C215.333,59.311,226.667,60.248,238,60.248C249.333,60.248,260.667,59.623,272,58.374C283.333,57.124,294.667,46.193,306,46.193C317.333,46.193,328.667,46.193,340,46.193C351.333,46.193,362.667,46.193,374,46.193C385.333,46.193,396.667,46.193,408,46.193C419.333,46.193,430.667,45.881,442,45.256C453.333,44.631,464.667,30.889,476,17.147L476,24.642C464.667,37.916,453.333,51.19,442,51.815C430.667,52.439,419.333,52.752,408,52.752C396.667,52.752,385.333,52.752,374,52.752C362.667,52.752,351.333,52.752,340,52.752C328.667,52.752,317.333,52.752,306,52.752C294.667,52.752,283.333,63.683,272,64.933C260.667,66.182,249.333,66.806,238,66.806C226.667,66.806,215.333,65.869,204,65.869C192.667,65.869,181.333,67.9,170,68.68C158.667,69.461,147.333,70.086,136,70.554C124.667,71.023,113.333,70.867,102,71.491C90.667,72.116,79.333,73.99,68,75.239C56.667,76.489,45.333,76.489,34,78.987C22.667,81.486,11.333,87.732,0,93.979Z" fill="#ee5396" fill-opacity="1" stroke="none"></path><path d="M0,93.042C11.333,86.327,22.667,79.612,34,77.113C45.333,74.615,56.667,75.395,68,73.365C79.333,71.335,90.667,65.557,102,64.933C113.333,64.308,124.667,64.464,136,63.996C147.333,63.527,158.667,62.902,170,62.122C181.333,61.341,192.667,59.311,204,59.311C215.333,59.311,226.667,60.248,238,60.248C249.333,60.248,260.667,59.623,272,58.374C283.333,57.124,294.667,46.193,306,46.193C317.333,46.193,328.667,46.193,340,46.193C351.333,46.193,362.667,46.193,374,46.193C385.333,46.193,396.667,46.193,408,46.193C419.333,46.193,430.667,45.881,442,45.256C453.333,44.631,464.667,30.889,476,17.147" fill="none" stroke="#ee5396" stroke-width="2"></path><path d="M0,92.105C11.333,84.921,22.667,77.738,34,75.239C45.333,72.741,56.667,73.521,68,71.491C79.333,69.461,90.667,63.683,102,63.059C113.333,62.434,124.667,62.59,136,62.122C147.333,61.653,158.667,61.028,170,60.248C181.333,59.467,192.667,57.437,204,57.437C215.333,57.437,226.667,58.374,238,58.374C249.333,58.374,260.667,57.749,272,56.5C283.333,55.25,294.667,44.319,306,44.319C317.333,44.319,328.667,44.319,340,44.319C351.333,44.319,362.667,44.319,374,44.319C385.333,44.319,396.667,44.319,408,44.319C419.333,44.319,430.667,44.007,442,43.382C453.333,42.757,464.667,29.015,476,15.273L476,17.147C464.667,30.889,453.333,44.631,442,45.256C430.667,45.881,419.333,46.193,408,46.193C396.667,46.193,385.333,46.193,374,46.193C362.667,46.193,351.333,46.193,340,46.193C328.667,46.193,317.333,46.193,306,46.193C294.667,46.193,283.333,57.124,272,58.374C260.667,59.623,249.333,60.248,238,60.248C226.667,60.248,215.333,59.311,204,59.311C192.667,59.311,181.333,61.341,170,62.122C158.667,62.902,147.333,63.527,136,63.996C124.667,64.464,113.333,64.308,102,64.933C90.667,65.557,79.333,71.335,68,73.365C56.667,75.395,45.333,74.615,34,77.113C22.667,79.612,11.333,86.327,0,93.042Z" fill="#ff7eb6" fill-opacity="1" stroke="none"></path><path d="M0,92.105C11.333,84.921,22.667,77.738,34,75.239C45.333,72.741,56.667,73.521,68,71.491C79.333,69.461,90.667,63.683,102,63.059C113.333,62.434,124.667,62.59,136,62.122C147.333,61.653,158.667,61.028,170,60.248C181.333,59.467,192.667,57.437,204,57.437C215.333,57.437,226.667,58.374,238,58.374C249.333,58.374,260.667,57.749,272,56.5C283.333,55.25,294.667,44.319,306,44.319C317.333,44.319,328.667,44.319,340,44.319C351.333,44.319,362.667,44.319,374,44.319C385.333,44.319,396.667,44.319,408,44.319C419.333,44.319,430.667,44.007,442,43.382C453.333,42.757,464.667,29.015,476,15.273" fill="none" stroke="#ff7eb6" stroke-width="2"></path></g><g id="docs-growth-axes" class="stream-axes"><line x1="0" y1="168" x2="476" y2="168" stroke="#e0e0e0" stroke-width="1"></line><g transform="translate(0,168)"><line y2="5" stroke="#e0e0e0" stroke-width="1"></line><text y="18" text-anchor="middle" font-size="12" fill="#525252" font-family="&#x27;IBM Plex Sans&#x27;, &#x27;Helvetica Neue&#x27;, Arial, sans-serif">0</text></g><g transform="translate(68,168)"><line y2="5" stroke="#e0e0e0" stroke-width="1"></line><text y="18" text-anchor="middle" font-size="12" fill="#525252" font-family="&#x27;IBM Plex Sans&#x27;, &#x27;Helvetica Neue&#x27;, Arial, sans-serif">2</text></g><g transform="translate(136,168)"><line y2="5" stroke="#e0e0e0" stroke-width="1"></line><text y="18" text-anchor="middle" font-size="12" fill="#525252" font-family="&#x27;IBM Plex Sans&#x27;, &#x27;Helvetica Neue&#x27;, Arial, sans-serif">4</text></g><g transform="translate(204,168)"><line y2="5" stroke="#e0e0e0" stroke-width="1"></line><text y="18" text-anchor="middle" font-size="12" fill="#525252" font-family="&#x27;IBM Plex Sans&#x27;, &#x27;Helvetica Neue&#x27;, Arial, sans-serif">6</text></g><g transform="translate(272,168)"><line y2="5" stroke="#e0e0e0" stroke-width="1"></line><text y="18" text-anchor="middle" font-size="12" fill="#525252" font-family="&#x27;IBM Plex Sans&#x27;, &#x27;Helvetica Neue&#x27;, Arial, sans-serif">8</text></g><g transform="translate(340,168)"><line y2="5" stroke="#e0e0e0" stroke-width="1"></line><text y="18" text-anchor="middle" font-size="12" fill="#525252" font-family="&#x27;IBM Plex Sans&#x27;, &#x27;Helvetica Neue&#x27;, Arial, sans-serif">10</text></g><g transform="translate(408,168)"><line y2="5" stroke="#e0e0e0" stroke-width="1"></line><text y="18" text-anchor="middle" font-size="12" fill="#525252" font-family="&#x27;IBM Plex Sans&#x27;, &#x27;Helvetica Neue&#x27;, Arial, sans-serif">12</text></g><g transform="translate(476,168)"><line y2="5" stroke="#e0e0e0" stroke-width="1"></line><text y="18" text-anchor="middle" font-size="12" fill="#525252" font-family="&#x27;IBM Plex Sans&#x27;, &#x27;Helvetica Neue&#x27;, Arial, sans-serif">14</text></g><line x1="0" y1="0" x2="0" y2="168" stroke="#e0e0e0" stroke-width="1"></line><g transform="translate(0,168)"><line x2="-5" stroke="#e0e0e0" stroke-width="1"></line><text x="-8" text-anchor="end" dominant-baseline="middle" font-size="12" fill="#525252" font-family="&#x27;IBM Plex Sans&#x27;, &#x27;Helvetica Neue&#x27;, Arial, sans-serif">0</text></g><g transform="translate(0,121.15114333519243)"><line x2="-5" stroke="#e0e0e0" stroke-width="1"></line><text x="-8" text-anchor="end" dominant-baseline="middle" font-size="12" fill="#525252" font-family="&#x27;IBM Plex Sans&#x27;, &#x27;Helvetica Neue&#x27;, Arial, sans-serif">50</text></g><g transform="translate(0,74.30228667038483)"><line x2="-5" stroke="#e0e0e0" stroke-width="1"></line><text x="-8" text-anchor="end" dominant-baseline="middle" font-size="12" fill="#525252" font-family="&#x27;IBM Plex Sans&#x27;, &#x27;Helvetica Neue&#x27;, Arial, sans-serif">100</text></g><g transform="translate(0,27.453430005577253)"><line x2="-5" stroke="#e0e0e0" stroke-width="1"></line><text x="-8" text-anchor="end" dominant-baseline="middle" font-size="12" fill="#525252" font-family="&#x27;IBM Plex Sans&#x27;, &#x27;Helvetica Neue&#x27;, Arial, sans-serif">150</text></g></g></g><g id="legend"><g class="semiotic-legend" transform="translate(528,14)"><line x1="0" y1="29" x2="100" y2="29" stroke="gray"></line><g transform="translate(0,37)"><rect width="16" height="16" fill="#0f62fe" rx="0"></rect><text x="22" y="8" dominant-baseline="central" font-size="12" fill="#161616" font-family="&#x27;IBM Plex Sans&#x27;, &#x27;Helvetica Neue&#x27;, Arial, sans-serif">XY Charts</text></g><g transform="translate(0,59)"><rect width="16" height="16" fill="#4589ff" rx="0"></rect><text x="22" y="8" dominant-baseline="central" font-size="12" fill="#161616" font-family="&#x27;IBM Plex Sans&#x27;, &#x27;Helvetica Neue&#x27;, Arial, sans-serif">Ordinal Charts</text></g><g transform="translate(0,81)"><rect width="16" height="16" fill="#78a9ff" rx="0"></rect><text x="22" y="8" dominant-baseline="central" font-size="12" fill="#161616" font-family="&#x27;IBM Plex Sans&#x27;, &#x27;Helvetica Neue&#x27;, Arial, sans-serif">Network Charts</text></g><g transform="translate(0,103)"><rect width="16" height="16" fill="#a6c8ff" rx="0"></rect><text x="22" y="8" dominant-baseline="central" font-size="12" fill="#161616" font-family="&#x27;IBM Plex Sans&#x27;, &#x27;Helvetica Neue&#x27;, Arial, sans-serif">Geo Charts</text></g><g transform="translate(0,125)"><rect width="16" height="16" fill="#33b1ff" rx="0"></rect><text x="22" y="8" dominant-baseline="central" font-size="12" fill="#161616" font-family="&#x27;IBM Plex Sans&#x27;, &#x27;Helvetica Neue&#x27;, Arial, sans-serif">Physics Charts</text></g><g transform="translate(0,147)"><rect width="16" height="16" fill="#d0e2ff" rx="0"></rect><text x="22" y="8" dominant-baseline="central" font-size="12" fill="#161616" font-family="&#x27;IBM Plex Sans&#x27;, &#x27;Helvetica Neue&#x27;, Arial, sans-serif">Custom Charts</text></g><g transform="translate(0,169)"><rect width="16" height="16" fill="#8a3ffc" rx="0"></rect><text x="22" y="8" dominant-baseline="central" font-size="12" fill="#161616" font-family="&#x27;IBM Plex Sans&#x27;, &#x27;Helvetica Neue&#x27;, Arial, sans-serif">Accessibility</text></g><g transform="translate(0,191)"><rect width="16" height="16" fill="#a56eff" rx="0"></rect><text x="22" y="8" dominant-baseline="central" font-size="12" fill="#161616" font-family="&#x27;IBM Plex Sans&#x27;, &#x27;Helvetica Neue&#x27;, Arial, sans-serif">Annotations</text></g><g transform="translate(0,213)"><rect width="16" height="16" fill="#be95ff" rx="0"></rect><text x="22" y="8" dominant-baseline="central" font-size="12" fill="#161616" font-family="&#x27;IBM Plex Sans&#x27;, &#x27;Helvetica Neue&#x27;, Arial, sans-serif">Intelligence</text></g><g transform="translate(0,235)"><rect width="16" height="16" fill="#d4bbff" rx="0"></rect><text x="22" y="8" dominant-baseline="central" font-size="12" fill="#161616" font-family="&#x27;IBM Plex Sans&#x27;, &#x27;Helvetica Neue&#x27;, Arial, sans-serif">Interoperability</text></g><g transform="translate(0,257)"><rect width="16" height="16" fill="#007d79" rx="0"></rect><text x="22" y="8" dominant-baseline="central" font-size="12" fill="#161616" font-family="&#x27;IBM Plex Sans&#x27;, &#x27;Helvetica Neue&#x27;, Arial, sans-serif">Features</text></g><g transform="translate(0,279)"><rect width="16" height="16" fill="#42be65" rx="0"></rect><text x="22" y="8" dominant-baseline="central" font-size="12" fill="#161616" font-family="&#x27;IBM Plex Sans&#x27;, &#x27;Helvetica Neue&#x27;, Arial, sans-serif">Theming</text></g><g transform="translate(0,301)"><rect width="16" height="16" fill="#6fdc8c" rx="0"></rect><text x="22" y="8" dominant-baseline="central" font-size="12" fill="#161616" font-family="&#x27;IBM Plex Sans&#x27;, &#x27;Helvetica Neue&#x27;, Arial, sans-serif">Cookbook</text></g><g transform="translate(0,323)"><rect width="16" height="16" fill="#a7f0ba" rx="0"></rect><text x="22" y="8" dominant-baseline="central" font-size="12" fill="#161616" font-family="&#x27;IBM Plex Sans&#x27;, &#x27;Helvetica Neue&#x27;, Arial, sans-serif">Recipes</text></g><g transform="translate(0,345)"><rect width="16" height="16" fill="#d02670" rx="0"></rect><text x="22" y="8" dominant-baseline="central" font-size="12" fill="#161616" font-family="&#x27;IBM Plex Sans&#x27;, &#x27;Helvetica Neue&#x27;, Arial, sans-serif">Playground</text></g><g transform="translate(0,367)"><rect width="16" height="16" fill="#ee5396" rx="0"></rect><text x="22" y="8" dominant-baseline="central" font-size="12" fill="#161616" font-family="&#x27;IBM Plex Sans&#x27;, &#x27;Helvetica Neue&#x27;, Arial, sans-serif">Server Rendering</text></g><g transform="translate(0,389)"><rect width="16" height="16" fill="#ff7eb6" rx="0"></rect><text x="22" y="8" dominant-baseline="central" font-size="12" fill="#161616" font-family="&#x27;IBM Plex Sans&#x27;, &#x27;Helvetica Neue&#x27;, Arial, sans-serif">API Reference</text></g></g></g></svg><g transform="translate(42,226)">
      <g transform="translate(0,0)">
        <rect width="8" height="8" rx="1.5" fill="#0f62fe" />
        <text x="12" y="7.5" font-size="8" fill="#525252">XY Charts</text>
      </g>
      <g transform="translate(88,0)">
        <rect width="8" height="8" rx="1.5" fill="#4589ff" />
        <text x="12" y="7.5" font-size="8" fill="#525252">Ordinal Charts</text>
      </g>
      <g transform="translate(176,0)">
        <rect width="8" height="8" rx="1.5" fill="#78a9ff" />
        <text x="12" y="7.5" font-size="8" fill="#525252">Network Charts</text>
      </g>
      <g transform="translate(264,0)">
        <rect width="8" height="8" rx="1.5" fill="#a6c8ff" />
        <text x="12" y="7.5" font-size="8" fill="#525252">Geo Charts</text>
      </g>
      <g transform="translate(352,0)">
        <rect width="8" height="8" rx="1.5" fill="#33b1ff" />
        <text x="12" y="7.5" font-size="8" fill="#525252">Physics Charts</text>
      </g>
      <g transform="translate(440,0)">
        <rect width="8" height="8" rx="1.5" fill="#d0e2ff" />
        <text x="12" y="7.5" font-size="8" fill="#525252">Custom Charts</text>
      </g>
      <g transform="translate(0,15)">
        <rect width="8" height="8" rx="1.5" fill="#8a3ffc" />
        <text x="12" y="7.5" font-size="8" fill="#525252">Accessibility</text>
      </g>
      <g transform="translate(88,15)">
        <rect width="8" height="8" rx="1.5" fill="#a56eff" />
        <text x="12" y="7.5" font-size="8" fill="#525252">Annotations</text>
      </g>
      <g transform="translate(176,15)">
        <rect width="8" height="8" rx="1.5" fill="#be95ff" />
        <text x="12" y="7.5" font-size="8" fill="#525252">Intelligence</text>
      </g>
      <g transform="translate(264,15)">
        <rect width="8" height="8" rx="1.5" fill="#d4bbff" />
        <text x="12" y="7.5" font-size="8" fill="#525252">Interoperability</text>
      </g>
      <g transform="translate(352,15)">
        <rect width="8" height="8" rx="1.5" fill="#007d79" />
        <text x="12" y="7.5" font-size="8" fill="#525252">Features</text>
      </g>
      <g transform="translate(440,15)">
        <rect width="8" height="8" rx="1.5" fill="#42be65" />
        <text x="12" y="7.5" font-size="8" fill="#525252">Theming</text>
      </g>
      <g transform="translate(0,30)">
        <rect width="8" height="8" rx="1.5" fill="#6fdc8c" />
        <text x="12" y="7.5" font-size="8" fill="#525252">Cookbook</text>
      </g>
      <g transform="translate(88,30)">
        <rect width="8" height="8" rx="1.5" fill="#a7f0ba" />
        <text x="12" y="7.5" font-size="8" fill="#525252">Recipes</text>
      </g>
      <g transform="translate(176,30)">
        <rect width="8" height="8" rx="1.5" fill="#d02670" />
        <text x="12" y="7.5" font-size="8" fill="#525252">Playground</text>
      </g>
      <g transform="translate(264,30)">
        <rect width="8" height="8" rx="1.5" fill="#ee5396" />
        <text x="12" y="7.5" font-size="8" fill="#525252">Server Rendering</text>
      </g>
      <g transform="translate(352,30)">
        <rect width="8" height="8" rx="1.5" fill="#ff7eb6" />
        <text x="12" y="7.5" font-size="8" fill="#525252">API Reference</text>
      </g></g></g>
      
    </g>
  <text x="34" y="806" font-size="13" fill="#525252">Generated by <tspan font-family="ui-monospace, SFMono-Regular, Menlo, monospace">scripts/generate-readme-dashboard.tsx</tspan> with <tspan font-family="ui-monospace, SFMono-Regular, Menlo, monospace">semiotic/server</tspan> using Semiotic&apos;s Server-Side Rendering (SSR).</text>
</svg>
