<svg xmlns="http://www.w3.org/2000/svg" width="1200" height="830" viewBox="0 0 1200 830" role="img" aria-labelledby="title desc" style="font-family:'IBM Plex Sans', 'Helvetica Neue', Arial, sans-serif">
  <title id="title">Semiotic release dashboard</title>
  <desc id="desc">A server-rendered dashboard showing Semiotic's chart catalog, bundle sizes, capability coverage, chart families, and documentation surface growth since version 3.0.0.</desc>
  <rect width="1200" height="830" fill="#f4f4f4" />
  <g transform="translate(34,40)">
    
    <g transform="translate(0,0)">
      <text y="0" font-size="24" font-weight="700" fill="#0f62fe">56</text>
      <text y="17" font-size="10" fill="#525252">schema-backed charts</text>
    </g>
    
    <g transform="translate(158,0)">
      <text y="0" font-size="24" font-weight="700" fill="#007d79">45</text>
      <text y="17" font-size="10" fill="#525252">SSR renderable</text>
    </g>
    
    <g transform="translate(292,0)">
      <text y="0" font-size="24" font-weight="700" fill="#8a3ffc">45</text>
      <text y="17" font-size="10" fill="#525252">push capable</text>
    </g>
    
    <g transform="translate(421,0)">
      <text y="0" font-size="24" font-weight="700" fill="#d02670">43</text>
      <text y="17" font-size="10" fill="#525252">linked hover</text>
    </g>
    
    <g transform="translate(556,0)">
      <text y="0" font-size="24" font-weight="700" fill="#198038">43</text>
      <text y="17" font-size="10" fill="#525252">selection-aware</text>
    </g>
    
    <g transform="translate(710,0)">
      <text y="0" font-size="24" font-weight="700" fill="#ff832b">382KB</text>
      <text y="17" font-size="10" fill="#525252">full bundle</text>
    </g>
    
    <g transform="translate(836,0)">
      <text y="0" font-size="24" font-weight="700" fill="#da1e28">468KB</text>
      <text y="17" font-size="10" fill="#525252">AI bundle</text>
    </g>
    
    <g transform="translate(958,0)">
      <text y="0" font-size="24" font-weight="700" fill="#1192e8">207KB</text>
      <text y="17" font-size="10" fill="#525252">server bundle</text>
    </g>
  </g>
  
    <g transform="translate(24,84)">
      <rect width="376" height="330" rx="6" fill="#ffffff" stroke="#c6c6c6" />
      <text x="20" y="28" font-size="17" font-weight="700" fill="#161616">Catalog growth</text>
      <text x="20" y="49" font-size="11" fill="#525252">27 charts in 3.0.0 → 56 in 3.8.6</text>
      <g transform="translate(12,62)"><svg xmlns="http://www.w3.org/2000/svg" class="stream-xy-frame" width="356" height="230" role="img" aria-labelledby="catalog-growth-desc" style="font-family:&#x27;IBM Plex Sans&#x27;, &#x27;Helvetica Neue&#x27;, Arial, sans-serif"><desc id="catalog-growth-desc">Line chart showing chart catalog and public export growth since 3.0.0.</desc><g id="catalog-growth-data-area" transform="translate(42,14)"><g id="catalog-growth-grid" class="semiotic-grid" opacity="0.8"><line x1="0" y1="0" x2="0" y2="172" stroke="#e0e0e0" stroke-width="0.5"></line><line x1="103.57142857142857" y1="0" x2="103.57142857142857" y2="172" stroke="#e0e0e0" stroke-width="0.5"></line><line x1="207.14285714285714" y1="0" x2="207.14285714285714" y2="172" stroke="#e0e0e0" stroke-width="0.5"></line><line x1="0" y1="151.69444444444443" x2="290" y2="151.69444444444443" stroke="#e0e0e0" stroke-width="0.5"></line><line x1="0" y1="121.83333333333331" x2="290" y2="121.83333333333331" stroke="#e0e0e0" stroke-width="0.5"></line><line x1="0" y1="91.9722222222222" x2="290" y2="91.9722222222222" stroke="#e0e0e0" stroke-width="0.5"></line><line x1="0" y1="62.1111111111111" x2="290" y2="62.1111111111111" stroke="#e0e0e0" stroke-width="0.5"></line><line x1="0" y1="32.25" x2="290" y2="32.25" stroke="#e0e0e0" stroke-width="0.5"></line><line x1="0" y1="2.3888888888888804" x2="290" y2="2.3888888888888804" stroke="#e0e0e0" stroke-width="0.5"></line></g><defs><clipPath id="cjn7afl-plot-clip"><rect x="0" y="0" width="290" height="172"></rect></clipPath></defs><g clip-path="url(#cjn7afl-plot-clip)"><path d="M0,100.93055555555556L20.71428571428571,91.9722222222222L41.42857142857142,83.01388888888889L62.14285714285714,74.05555555555556L82.85714285714285,56.13888888888888L103.57142857142857,53.15277777777778L124.28571428571428,47.18055555555556L145,47.18055555555556L165.7142857142857,44.19444444444444L186.42857142857144,41.20833333333332L207.14285714285714,41.20833333333332L227.85714285714286,41.20833333333332L248.57142857142856,41.20833333333332L269.2857142857143,41.20833333333332L290,14.333333333333321" fill="none" stroke="#6929c4" stroke-width="2"></path><path d="M0,157.66666666666666L20.71428571428571,154.68055555555557L41.42857142857142,151.69444444444443L62.14285714285714,148.70833333333331L82.85714285714285,148.70833333333331L103.57142857142857,145.72222222222223L124.28571428571428,145.72222222222223L145,145.72222222222223L165.7142857142857,145.72222222222223L186.42857142857144,142.73611111111111L207.14285714285714,142.73611111111111L227.85714285714286,142.73611111111111L248.57142857142856,142.73611111111111L269.2857142857143,142.73611111111111L290,88.9861111111111" fill="none" stroke="#1192e8" stroke-width="2"></path></g><g id="catalog-growth-axes" class="stream-axes"><line x1="0" y1="172" x2="290" y2="172" stroke="#e0e0e0" stroke-width="1"></line><g transform="translate(0,172)"><line y2="5" stroke="#e0e0e0" stroke-width="1"></line><text y="18" text-anchor="middle" font-size="12" fill="#525252" font-family="&#x27;IBM Plex Sans&#x27;, &#x27;Helvetica Neue&#x27;, Arial, sans-serif">0</text></g><g transform="translate(103.57142857142857,172)"><line y2="5" stroke="#e0e0e0" stroke-width="1"></line><text y="18" text-anchor="middle" font-size="12" fill="#525252" font-family="&#x27;IBM Plex Sans&#x27;, &#x27;Helvetica Neue&#x27;, Arial, sans-serif">5</text></g><g transform="translate(207.14285714285714,172)"><line y2="5" stroke="#e0e0e0" stroke-width="1"></line><text y="18" text-anchor="middle" font-size="12" fill="#525252" font-family="&#x27;IBM Plex Sans&#x27;, &#x27;Helvetica Neue&#x27;, Arial, sans-serif">10</text></g><line x1="0" y1="0" x2="0" y2="172" stroke="#e0e0e0" stroke-width="1"></line><g transform="translate(0,151.69444444444443)"><line x2="-5" stroke="#e0e0e0" stroke-width="1"></line><text x="-8" text-anchor="end" dominant-baseline="middle" font-size="12" fill="#525252" font-family="&#x27;IBM Plex Sans&#x27;, &#x27;Helvetica Neue&#x27;, Arial, sans-serif">10</text></g><g transform="translate(0,121.83333333333331)"><line x2="-5" stroke="#e0e0e0" stroke-width="1"></line><text x="-8" text-anchor="end" dominant-baseline="middle" font-size="12" fill="#525252" font-family="&#x27;IBM Plex Sans&#x27;, &#x27;Helvetica Neue&#x27;, Arial, sans-serif">20</text></g><g transform="translate(0,91.9722222222222)"><line x2="-5" stroke="#e0e0e0" stroke-width="1"></line><text x="-8" text-anchor="end" dominant-baseline="middle" font-size="12" fill="#525252" font-family="&#x27;IBM Plex Sans&#x27;, &#x27;Helvetica Neue&#x27;, Arial, sans-serif">30</text></g><g transform="translate(0,62.1111111111111)"><line x2="-5" stroke="#e0e0e0" stroke-width="1"></line><text x="-8" text-anchor="end" dominant-baseline="middle" font-size="12" fill="#525252" font-family="&#x27;IBM Plex Sans&#x27;, &#x27;Helvetica Neue&#x27;, Arial, sans-serif">40</text></g><g transform="translate(0,32.25)"><line x2="-5" stroke="#e0e0e0" stroke-width="1"></line><text x="-8" text-anchor="end" dominant-baseline="middle" font-size="12" fill="#525252" font-family="&#x27;IBM Plex Sans&#x27;, &#x27;Helvetica Neue&#x27;, Arial, sans-serif">50</text></g><g transform="translate(0,2.3888888888888804)"><line x2="-5" stroke="#e0e0e0" stroke-width="1"></line><text x="-8" text-anchor="end" dominant-baseline="middle" font-size="12" fill="#525252" font-family="&#x27;IBM Plex Sans&#x27;, &#x27;Helvetica Neue&#x27;, Arial, sans-serif">60</text></g></g></g><g id="legend"><g class="semiotic-legend" transform="translate(342,14)"><line x1="0" y1="29" x2="120" y2="29" stroke="gray"></line><g transform="translate(0,37)"><rect width="16" height="16" fill="#6929c4" rx="0"></rect><text x="22" y="8" dominant-baseline="central" font-size="12" fill="#161616" font-family="&#x27;IBM Plex Sans&#x27;, &#x27;Helvetica Neue&#x27;, Arial, sans-serif">Charts</text></g><g transform="translate(0,59)"><rect width="16" height="16" fill="#1192e8" rx="0"></rect><text x="22" y="8" dominant-baseline="central" font-size="12" fill="#161616" font-family="&#x27;IBM Plex Sans&#x27;, &#x27;Helvetica Neue&#x27;, Arial, sans-serif">Public exports</text></g></g></g></svg></g>
      <text x="20" y="314" font-size="10" fill="#525252">AI schema count + public package exports, read from release artifacts</text>
    </g>
  
    <g transform="translate(418,84)">
      <rect width="376" height="330" rx="6" fill="#ffffff" stroke="#c6c6c6" />
      <text x="20" y="28" font-size="17" font-weight="700" fill="#161616">Bundle budget</text>
      <text x="20" y="49" font-size="11" fill="#525252">Subpath imports keep production payloads intentional</text>
      <g transform="translate(12,62)"><svg xmlns="http://www.w3.org/2000/svg" class="stream-ordinal-frame" width="356" height="230" role="img" aria-labelledby="bundle-budget-desc" style="font-family:&#x27;IBM Plex Sans&#x27;, &#x27;Helvetica Neue&#x27;, Arial, sans-serif"><desc id="bundle-budget-desc">Current production bundle sizes generated from dist artifacts.</desc><g id="bundle-budget-data-area" transform="translate(104,10)"><g id="bundle-budget-grid" class="semiotic-grid" opacity="0.8"><line x1="0" y1="0" x2="0" y2="186" stroke="#e0e0e0" stroke-width="0.5"></line><line x1="53.37014032666207" y1="0" x2="53.37014032666207" y2="186" stroke="#e0e0e0" stroke-width="0.5"></line><line x1="106.74028065332413" y1="0" x2="106.74028065332413" y2="186" stroke="#e0e0e0" stroke-width="0.5"></line><line x1="160.1104209799862" y1="0" x2="160.1104209799862" y2="186" stroke="#e0e0e0" stroke-width="0.5"></line><line x1="213.48056130664827" y1="0" x2="213.48056130664827" y2="186" stroke="#e0e0e0" stroke-width="0.5"></line></g><rect x="0" y="1.5371900826446137" width="220.95238095238096" height="13.834710743801654" fill="#6929c4"></rect><rect x="0" y="16.909090909090896" width="164.38003220611918" height="13.834710743801654" fill="#6929c4"></rect><rect x="0" y="32.28099173553718" width="162.24522659305268" height="13.834710743801654" fill="#6929c4"></rect><rect x="0" y="47.652892561983464" width="152.6386013342535" height="13.834710743801654" fill="#6929c4"></rect><rect x="0" y="63.02479338842974" width="133.42535081665517" height="13.834710743801654" fill="#6929c4"></rect><rect x="0" y="78.39669421487602" width="127.02093397745571" height="13.834710743801654" fill="#6929c4"></rect><rect x="0" y="93.76859504132231" width="104.60547504025764" height="13.834710743801654" fill="#6929c4"></rect><rect x="0" y="109.14049586776859" width="89.66183574879227" height="13.834710743801654" fill="#6929c4"></rect><rect x="0" y="124.51239669421487" width="88.59443294225903" height="13.834710743801654" fill="#6929c4"></rect><rect x="0" y="139.88429752066116" width="8.53922245226593" height="13.834710743801654" fill="#6929c4"></rect><rect x="0" y="155.25619834710744" width="7.47181964573269" height="13.834710743801654" fill="#6929c4"></rect><rect x="0" y="170.62809917355372" width="4.269611226132965" height="13.834710743801654" fill="#6929c4"></rect><g id="bundle-budget-axes" class="ordinal-axes"><line x1="0" y1="186" x2="232" y2="186" stroke="#e0e0e0" stroke-width="1"></line><g transform="translate(0,186)"><line y2="5" stroke="#e0e0e0" stroke-width="1"></line><text y="18" text-anchor="middle" font-size="12" fill="#525252" font-family="&#x27;IBM Plex Sans&#x27;, &#x27;Helvetica Neue&#x27;, Arial, sans-serif">0</text></g><g transform="translate(53.37014032666207,186)"><line y2="5" stroke="#e0e0e0" stroke-width="1"></line><text y="18" text-anchor="middle" font-size="12" fill="#525252" font-family="&#x27;IBM Plex Sans&#x27;, &#x27;Helvetica Neue&#x27;, Arial, sans-serif">50</text></g><g transform="translate(106.74028065332413,186)"><line y2="5" stroke="#e0e0e0" stroke-width="1"></line><text y="18" text-anchor="middle" font-size="12" fill="#525252" font-family="&#x27;IBM Plex Sans&#x27;, &#x27;Helvetica Neue&#x27;, Arial, sans-serif">100</text></g><g transform="translate(160.1104209799862,186)"><line y2="5" stroke="#e0e0e0" stroke-width="1"></line><text y="18" text-anchor="middle" font-size="12" fill="#525252" font-family="&#x27;IBM Plex Sans&#x27;, &#x27;Helvetica Neue&#x27;, Arial, sans-serif">150</text></g><g transform="translate(213.48056130664827,186)"><line y2="5" stroke="#e0e0e0" stroke-width="1"></line><text y="18" text-anchor="middle" font-size="12" fill="#525252" font-family="&#x27;IBM Plex Sans&#x27;, &#x27;Helvetica Neue&#x27;, Arial, sans-serif">200</text></g><line x1="0" y1="0" x2="0" y2="186" stroke="#e0e0e0" stroke-width="1"></line><g transform="translate(0,8.45454545454544)"><line x2="-5" stroke="#e0e0e0" stroke-width="1"></line><text x="-8" text-anchor="end" dominant-baseline="middle" font-size="12" fill="#525252" font-family="&#x27;IBM Plex Sans&#x27;, &#x27;Helvetica Neue&#x27;, Arial, sans-serif">semiotic/server</text></g><g transform="translate(0,23.826446280991725)"><line x2="-5" stroke="#e0e0e0" stroke-width="1"></line><text x="-8" text-anchor="end" dominant-baseline="middle" font-size="12" fill="#525252" font-family="&#x27;IBM Plex Sans&#x27;, &#x27;Helvetica Neue&#x27;, Arial, sans-serif">semiotic/physics</text></g><g transform="translate(0,39.198347107438)"><line x2="-5" stroke="#e0e0e0" stroke-width="1"></line><text x="-8" text-anchor="end" dominant-baseline="middle" font-size="12" fill="#525252" font-family="&#x27;IBM Plex Sans&#x27;, &#x27;Helvetica Neue&#x27;, Arial, sans-serif">semiotic/realtime</text></g><g transform="translate(0,54.57024793388429)"><line x2="-5" stroke="#e0e0e0" stroke-width="1"></line><text x="-8" text-anchor="end" dominant-baseline="middle" font-size="12" fill="#525252" font-family="&#x27;IBM Plex Sans&#x27;, &#x27;Helvetica Neue&#x27;, Arial, sans-serif">semiotic/xy</text></g><g transform="translate(0,69.94214876033057)"><line x2="-5" stroke="#e0e0e0" stroke-width="1"></line><text x="-8" text-anchor="end" dominant-baseline="middle" font-size="12" fill="#525252" font-family="&#x27;IBM Plex Sans&#x27;, &#x27;Helvetica Neue&#x27;, Arial, sans-serif">semiotic/network</text></g><g transform="translate(0,85.31404958677685)"><line x2="-5" stroke="#e0e0e0" stroke-width="1"></line><text x="-8" text-anchor="end" dominant-baseline="middle" font-size="12" fill="#525252" font-family="&#x27;IBM Plex Sans&#x27;, &#x27;Helvetica Neue&#x27;, Arial, sans-serif">semiotic/ordinal</text></g><g transform="translate(0,100.68595041322314)"><line x2="-5" stroke="#e0e0e0" stroke-width="1"></line><text x="-8" text-anchor="end" dominant-baseline="middle" font-size="12" fill="#525252" font-family="&#x27;IBM Plex Sans&#x27;, &#x27;Helvetica Neue&#x27;, Arial, sans-serif">semiotic/geo</text></g><g transform="translate(0,116.05785123966942)"><line x2="-5" stroke="#e0e0e0" stroke-width="1"></line><text x="-8" text-anchor="end" dominant-baseline="middle" font-size="12" fill="#525252" font-family="&#x27;IBM Plex Sans&#x27;, &#x27;Helvetica Neue&#x27;, Arial, sans-serif">semiotic/recipes</text></g><g transform="translate(0,131.4297520661157)"><line x2="-5" stroke="#e0e0e0" stroke-width="1"></line><text x="-8" text-anchor="end" dominant-baseline="middle" font-size="12" fill="#525252" font-family="&#x27;IBM Plex Sans&#x27;, &#x27;Helvetica Neue&#x27;, Arial, sans-serif">semiotic/utils</text></g><g transform="translate(0,146.801652892562)"><line x2="-5" stroke="#e0e0e0" stroke-width="1"></line><text x="-8" text-anchor="end" dominant-baseline="middle" font-size="12" fill="#525252" font-family="&#x27;IBM Plex Sans&#x27;, &#x27;Helvetica Neue&#x27;, Arial, sans-serif">semiotic/value</text></g><g transform="translate(0,162.17355371900828)"><line x2="-5" stroke="#e0e0e0" stroke-width="1"></line><text x="-8" text-anchor="end" dominant-baseline="middle" font-size="12" fill="#525252" font-family="&#x27;IBM Plex Sans&#x27;, &#x27;Helvetica Neue&#x27;, Arial, sans-serif">semiotic/themes</text></g><g transform="translate(0,177.54545454545456)"><line x2="-5" stroke="#e0e0e0" stroke-width="1"></line><text x="-8" text-anchor="end" dominant-baseline="middle" font-size="12" fill="#525252" font-family="&#x27;IBM Plex Sans&#x27;, &#x27;Helvetica Neue&#x27;, Arial, sans-serif">semiotic/data</text></g></g></g></svg></g>
      <text x="20" y="314" font-size="10" fill="#525252">Measured from current production dist with gzip -9</text>
    </g>
  
    <g transform="translate(812,84)">
      <rect width="376" height="330" rx="6" fill="#ffffff" stroke="#c6c6c6" />
      <text x="20" y="28" font-size="17" font-weight="700" fill="#161616">Capability surface</text>
      <text x="20" y="49" font-size="11" fill="#525252">SSR, push, hover, and selection coverage stay explicit</text>
      <g transform="translate(12,62)"><svg xmlns="http://www.w3.org/2000/svg" class="stream-xy-frame" width="356" height="230" role="img" aria-labelledby="capability-surface-desc" style="font-family:&#x27;IBM Plex Sans&#x27;, &#x27;Helvetica Neue&#x27;, Arial, sans-serif"><desc id="capability-surface-desc">Line chart showing SSR, push, linked hover, and selection coverage since the capability matrix shipped.</desc><g id="capability-surface-data-area" transform="translate(42,14)"><g id="capability-surface-grid" class="semiotic-grid" opacity="0.8"><line x1="0" y1="0" x2="0" y2="172" stroke="#e0e0e0" stroke-width="0.5"></line><line x1="72.5" y1="0" x2="72.5" y2="172" stroke="#e0e0e0" stroke-width="0.5"></line><line x1="145" y1="0" x2="145" y2="172" stroke="#e0e0e0" stroke-width="0.5"></line><line x1="217.5" y1="0" x2="217.5" y2="172" stroke="#e0e0e0" stroke-width="0.5"></line><line x1="290" y1="0" x2="290" y2="172" stroke="#e0e0e0" stroke-width="0.5"></line><line x1="0" y1="169.61111111111111" x2="290" y2="169.61111111111111" stroke="#e0e0e0" stroke-width="0.5"></line><line x1="0" y1="145.72222222222223" x2="290" y2="145.72222222222223" stroke="#e0e0e0" stroke-width="0.5"></line><line x1="0" y1="121.83333333333336" x2="290" y2="121.83333333333336" stroke="#e0e0e0" stroke-width="0.5"></line><line x1="0" y1="97.94444444444446" x2="290" y2="97.94444444444446" stroke="#e0e0e0" stroke-width="0.5"></line><line x1="0" y1="74.05555555555559" x2="290" y2="74.05555555555559" stroke="#e0e0e0" stroke-width="0.5"></line><line x1="0" y1="50.1666666666667" x2="290" y2="50.1666666666667" stroke="#e0e0e0" stroke-width="0.5"></line><line x1="0" y1="26.2777777777778" x2="290" y2="26.2777777777778" stroke="#e0e0e0" stroke-width="0.5"></line><line x1="0" y1="2.3888888888889186" x2="290" y2="2.3888888888889186" stroke="#e0e0e0" stroke-width="0.5"></line></g><defs><clipPath id="cjn7afr-plot-clip"><rect x="0" y="0" width="290" height="172"></rect></clipPath></defs><g clip-path="url(#cjn7afr-plot-clip)"><path d="M0,157.66666666666669L36.25,133.7777777777778L72.5,133.7777777777778L108.75,133.7777777777778L145,133.7777777777778L181.25,133.7777777777778L217.5,133.7777777777778L253.75,133.7777777777778L290,14.333333333333359" fill="none" stroke="#6929c4" stroke-width="2"></path><path d="M0,121.83333333333336L36.25,109.88888888888891L72.5,109.88888888888891L108.75,97.94444444444446L145,97.94444444444446L181.25,97.94444444444446L217.5,97.94444444444446L253.75,97.94444444444446L290,14.333333333333359" fill="none" stroke="#1192e8" stroke-width="2"></path><path d="M0,62.111111111111136L36.25,50.1666666666667L72.5,38.22222222222226L108.75,38.22222222222226L145,38.22222222222226L181.25,38.22222222222226L217.5,38.22222222222226L253.75,38.22222222222226L290,38.22222222222226" fill="none" stroke="#005d5d" stroke-width="2"></path><path d="M0,62.111111111111136L36.25,50.1666666666667L72.5,38.22222222222226L108.75,38.22222222222226L145,38.22222222222226L181.25,38.22222222222226L217.5,38.22222222222226L253.75,38.22222222222226L290,38.22222222222226" fill="none" stroke="#9f1853" stroke-width="2"></path></g><g id="capability-surface-axes" class="stream-axes"><line x1="0" y1="172" x2="290" y2="172" stroke="#e0e0e0" stroke-width="1"></line><g transform="translate(0,172)"><line y2="5" stroke="#e0e0e0" stroke-width="1"></line><text y="18" text-anchor="middle" font-size="12" fill="#525252" font-family="&#x27;IBM Plex Sans&#x27;, &#x27;Helvetica Neue&#x27;, Arial, sans-serif">6</text></g><g transform="translate(72.5,172)"><line y2="5" stroke="#e0e0e0" stroke-width="1"></line><text y="18" text-anchor="middle" font-size="12" fill="#525252" font-family="&#x27;IBM Plex Sans&#x27;, &#x27;Helvetica Neue&#x27;, Arial, sans-serif">8</text></g><g transform="translate(145,172)"><line y2="5" stroke="#e0e0e0" stroke-width="1"></line><text y="18" text-anchor="middle" font-size="12" fill="#525252" font-family="&#x27;IBM Plex Sans&#x27;, &#x27;Helvetica Neue&#x27;, Arial, sans-serif">10</text></g><g transform="translate(217.5,172)"><line y2="5" stroke="#e0e0e0" stroke-width="1"></line><text y="18" text-anchor="middle" font-size="12" fill="#525252" font-family="&#x27;IBM Plex Sans&#x27;, &#x27;Helvetica Neue&#x27;, Arial, sans-serif">12</text></g><g transform="translate(290,172)"><line y2="5" stroke="#e0e0e0" stroke-width="1"></line><text y="18" text-anchor="middle" font-size="12" fill="#525252" font-family="&#x27;IBM Plex Sans&#x27;, &#x27;Helvetica Neue&#x27;, Arial, sans-serif">14</text></g><line x1="0" y1="0" x2="0" y2="172" stroke="#e0e0e0" stroke-width="1"></line><g transform="translate(0,169.61111111111111)"><line x2="-5" stroke="#e0e0e0" stroke-width="1"></line><text x="-8" text-anchor="end" dominant-baseline="middle" font-size="12" fill="#525252" font-family="&#x27;IBM Plex Sans&#x27;, &#x27;Helvetica Neue&#x27;, Arial, sans-serif">32</text></g><g transform="translate(0,145.72222222222223)"><line x2="-5" stroke="#e0e0e0" stroke-width="1"></line><text x="-8" text-anchor="end" dominant-baseline="middle" font-size="12" fill="#525252" font-family="&#x27;IBM Plex Sans&#x27;, &#x27;Helvetica Neue&#x27;, Arial, sans-serif">34</text></g><g transform="translate(0,121.83333333333336)"><line x2="-5" stroke="#e0e0e0" stroke-width="1"></line><text x="-8" text-anchor="end" dominant-baseline="middle" font-size="12" fill="#525252" font-family="&#x27;IBM Plex Sans&#x27;, &#x27;Helvetica Neue&#x27;, Arial, sans-serif">36</text></g><g transform="translate(0,97.94444444444446)"><line x2="-5" stroke="#e0e0e0" stroke-width="1"></line><text x="-8" text-anchor="end" dominant-baseline="middle" font-size="12" fill="#525252" font-family="&#x27;IBM Plex Sans&#x27;, &#x27;Helvetica Neue&#x27;, Arial, sans-serif">38</text></g><g transform="translate(0,74.05555555555559)"><line x2="-5" stroke="#e0e0e0" stroke-width="1"></line><text x="-8" text-anchor="end" dominant-baseline="middle" font-size="12" fill="#525252" font-family="&#x27;IBM Plex Sans&#x27;, &#x27;Helvetica Neue&#x27;, Arial, sans-serif">40</text></g><g transform="translate(0,50.1666666666667)"><line x2="-5" stroke="#e0e0e0" stroke-width="1"></line><text x="-8" text-anchor="end" dominant-baseline="middle" font-size="12" fill="#525252" font-family="&#x27;IBM Plex Sans&#x27;, &#x27;Helvetica Neue&#x27;, Arial, sans-serif">42</text></g><g transform="translate(0,26.2777777777778)"><line x2="-5" stroke="#e0e0e0" stroke-width="1"></line><text x="-8" text-anchor="end" dominant-baseline="middle" font-size="12" fill="#525252" font-family="&#x27;IBM Plex Sans&#x27;, &#x27;Helvetica Neue&#x27;, Arial, sans-serif">44</text></g><g transform="translate(0,2.3888888888889186)"><line x2="-5" stroke="#e0e0e0" stroke-width="1"></line><text x="-8" text-anchor="end" dominant-baseline="middle" font-size="12" fill="#525252" font-family="&#x27;IBM Plex Sans&#x27;, &#x27;Helvetica Neue&#x27;, Arial, sans-serif">46</text></g></g></g><g id="legend"><g class="semiotic-legend" transform="translate(342,14)"><line x1="0" y1="29" x2="120" y2="29" stroke="gray"></line><g transform="translate(0,37)"><rect width="16" height="16" fill="#6929c4" rx="0"></rect><text x="22" y="8" dominant-baseline="central" font-size="12" fill="#161616" font-family="&#x27;IBM Plex Sans&#x27;, &#x27;Helvetica Neue&#x27;, Arial, sans-serif">SSR renderable</text></g><g transform="translate(0,59)"><rect width="16" height="16" fill="#1192e8" rx="0"></rect><text x="22" y="8" dominant-baseline="central" font-size="12" fill="#161616" font-family="&#x27;IBM Plex Sans&#x27;, &#x27;Helvetica Neue&#x27;, Arial, sans-serif">Push capable</text></g><g transform="translate(0,81)"><rect width="16" height="16" fill="#005d5d" rx="0"></rect><text x="22" y="8" dominant-baseline="central" font-size="12" fill="#161616" font-family="&#x27;IBM Plex Sans&#x27;, &#x27;Helvetica Neue&#x27;, Arial, sans-serif">Linked hover</text></g><g transform="translate(0,103)"><rect width="16" height="16" fill="#9f1853" rx="0"></rect><text x="22" y="8" dominant-baseline="central" font-size="12" fill="#161616" font-family="&#x27;IBM Plex Sans&#x27;, &#x27;Helvetica Neue&#x27;, Arial, sans-serif">Selection</text></g></g></g></svg></g>
      <text x="20" y="314" font-size="10" fill="#525252">Capability matrix began in 3.5.2 and is release-gated</text>
    </g>
  
    <g transform="translate(24,432)">
      <rect width="573" height="354" rx="6" fill="#ffffff" stroke="#c6c6c6" />
      <text x="20" y="28" font-size="17" font-weight="700" fill="#161616">Families by render path</text>
      <text x="20" y="49" font-size="11" fill="#525252">SSR is broad; realtime stays browser/live where that is the point</text>
      <g transform="translate(12,62)"><svg xmlns="http://www.w3.org/2000/svg" class="stream-ordinal-frame" width="544" height="250" role="img" aria-labelledby="family-render-path-desc" style="font-family:&#x27;IBM Plex Sans&#x27;, &#x27;Helvetica Neue&#x27;, Arial, sans-serif"><desc id="family-render-path-desc">Stacked bars comparing SSR-renderable and browser/live chart counts by family.</desc><g id="family-render-path-data-area" transform="translate(42,14)"><g id="family-render-path-grid" class="semiotic-grid" opacity="0.8"><line x1="0" y1="194" x2="480" y2="194" stroke="#e0e0e0" stroke-width="0.5"></line><line x1="0" y1="169.36507936507937" x2="480" y2="169.36507936507937" stroke="#e0e0e0" stroke-width="0.5"></line><line x1="0" y1="144.73015873015873" x2="480" y2="144.73015873015873" stroke="#e0e0e0" stroke-width="0.5"></line><line x1="0" y1="120.0952380952381" x2="480" y2="120.0952380952381" stroke="#e0e0e0" stroke-width="0.5"></line><line x1="0" y1="95.46031746031747" x2="480" y2="95.46031746031747" stroke="#e0e0e0" stroke-width="0.5"></line><line x1="0" y1="70.82539682539684" x2="480" y2="70.82539682539684" stroke="#e0e0e0" stroke-width="0.5"></line><line x1="0" y1="46.1904761904762" x2="480" y2="46.1904761904762" stroke="#e0e0e0" stroke-width="0.5"></line><line x1="0" y1="21.555555555555564" x2="480" y2="21.555555555555564" stroke="#e0e0e0" stroke-width="0.5"></line></g><rect x="6.760563380281695" y="95.46031746031747" width="60.84507042253521" height="98.53968253968253" fill="#6929c4"></rect><rect x="6.760563380281695" y="95.46031746031747" width="60.84507042253521" height="0" fill="#1192e8"></rect><rect x="74.36619718309859" y="58.50793650793651" width="60.84507042253521" height="135.4920634920635" fill="#6929c4"></rect><rect x="74.36619718309859" y="21.555555555555564" width="60.84507042253521" height="36.95238095238095" fill="#1192e8"></rect><rect x="141.9718309859155" y="9.238095238095248" width="60.84507042253521" height="184.76190476190476" fill="#6929c4"></rect><rect x="141.9718309859155" y="9.238095238095248" width="60.84507042253521" height="0" fill="#1192e8"></rect><rect x="209.57746478873239" y="107.77777777777779" width="60.84507042253521" height="86.22222222222221" fill="#6929c4"></rect><rect x="209.57746478873239" y="95.46031746031747" width="60.84507042253521" height="12.317460317460316" fill="#1192e8"></rect><rect x="277.1830985915493" y="157.04761904761904" width="60.84507042253521" height="36.95238095238096" fill="#6929c4"></rect><rect x="277.1830985915493" y="144.73015873015873" width="60.84507042253521" height="12.317460317460302" fill="#1192e8"></rect><rect x="344.7887323943662" y="181.68253968253967" width="60.84507042253521" height="12.31746031746033" fill="#6929c4"></rect><rect x="344.7887323943662" y="120.0952380952381" width="60.84507042253521" height="61.58730158730157" fill="#1192e8"></rect><rect x="412.3943661971831" y="194" width="60.84507042253521" height="0" fill="#6929c4"></rect><rect x="412.3943661971831" y="181.68253968253967" width="60.84507042253521" height="12.31746031746033" fill="#1192e8"></rect><g id="family-render-path-axes" class="ordinal-axes"><line x1="0" y1="194" x2="480" y2="194" stroke="#e0e0e0" stroke-width="1"></line><g transform="translate(37.183098591549296,194)"><line y2="5" stroke="#e0e0e0" stroke-width="1"></line><text y="18" text-anchor="middle" font-size="12" fill="#525252" font-family="&#x27;IBM Plex Sans&#x27;, &#x27;Helvetica Neue&#x27;, Arial, sans-serif">physics</text></g><g transform="translate(104.78873239436619,194)"><line y2="5" stroke="#e0e0e0" stroke-width="1"></line><text y="18" text-anchor="middle" font-size="12" fill="#525252" font-family="&#x27;IBM Plex Sans&#x27;, &#x27;Helvetica Neue&#x27;, Arial, sans-serif">xy</text></g><g transform="translate(172.3943661971831,194)"><line y2="5" stroke="#e0e0e0" stroke-width="1"></line><text y="18" text-anchor="middle" font-size="12" fill="#525252" font-family="&#x27;IBM Plex Sans&#x27;, &#x27;Helvetica Neue&#x27;, Arial, sans-serif">ordinal</text></g><g transform="translate(240,194)"><line y2="5" stroke="#e0e0e0" stroke-width="1"></line><text y="18" text-anchor="middle" font-size="12" fill="#525252" font-family="&#x27;IBM Plex Sans&#x27;, &#x27;Helvetica Neue&#x27;, Arial, sans-serif">network</text></g><g transform="translate(307.6056338028169,194)"><line y2="5" stroke="#e0e0e0" stroke-width="1"></line><text y="18" text-anchor="middle" font-size="12" fill="#525252" font-family="&#x27;IBM Plex Sans&#x27;, &#x27;Helvetica Neue&#x27;, Arial, sans-serif">geo</text></g><g transform="translate(375.2112676056338,194)"><line y2="5" stroke="#e0e0e0" stroke-width="1"></line><text y="18" text-anchor="middle" font-size="12" fill="#525252" font-family="&#x27;IBM Plex Sans&#x27;, &#x27;Helvetica Neue&#x27;, Arial, sans-serif">realtime</text></g><g transform="translate(442.8169014084507,194)"><line y2="5" stroke="#e0e0e0" stroke-width="1"></line><text y="18" text-anchor="middle" font-size="12" fill="#525252" font-family="&#x27;IBM Plex Sans&#x27;, &#x27;Helvetica Neue&#x27;, Arial, sans-serif">value</text></g><line x1="0" y1="0" x2="0" y2="194" stroke="#e0e0e0" stroke-width="1"></line><g transform="translate(0,194)"><line x2="-5" stroke="#e0e0e0" stroke-width="1"></line><text x="-8" text-anchor="end" dominant-baseline="middle" font-size="12" fill="#525252" font-family="&#x27;IBM Plex Sans&#x27;, &#x27;Helvetica Neue&#x27;, Arial, sans-serif">0</text></g><g transform="translate(0,169.36507936507937)"><line x2="-5" stroke="#e0e0e0" stroke-width="1"></line><text x="-8" text-anchor="end" dominant-baseline="middle" font-size="12" fill="#525252" font-family="&#x27;IBM Plex Sans&#x27;, &#x27;Helvetica Neue&#x27;, Arial, sans-serif">2</text></g><g transform="translate(0,144.73015873015873)"><line x2="-5" stroke="#e0e0e0" stroke-width="1"></line><text x="-8" text-anchor="end" dominant-baseline="middle" font-size="12" fill="#525252" font-family="&#x27;IBM Plex Sans&#x27;, &#x27;Helvetica Neue&#x27;, Arial, sans-serif">4</text></g><g transform="translate(0,120.0952380952381)"><line x2="-5" stroke="#e0e0e0" stroke-width="1"></line><text x="-8" text-anchor="end" dominant-baseline="middle" font-size="12" fill="#525252" font-family="&#x27;IBM Plex Sans&#x27;, &#x27;Helvetica Neue&#x27;, Arial, sans-serif">6</text></g><g transform="translate(0,95.46031746031747)"><line x2="-5" stroke="#e0e0e0" stroke-width="1"></line><text x="-8" text-anchor="end" dominant-baseline="middle" font-size="12" fill="#525252" font-family="&#x27;IBM Plex Sans&#x27;, &#x27;Helvetica Neue&#x27;, Arial, sans-serif">8</text></g><g transform="translate(0,70.82539682539684)"><line x2="-5" stroke="#e0e0e0" stroke-width="1"></line><text x="-8" text-anchor="end" dominant-baseline="middle" font-size="12" fill="#525252" font-family="&#x27;IBM Plex Sans&#x27;, &#x27;Helvetica Neue&#x27;, Arial, sans-serif">10</text></g><g transform="translate(0,46.1904761904762)"><line x2="-5" stroke="#e0e0e0" stroke-width="1"></line><text x="-8" text-anchor="end" dominant-baseline="middle" font-size="12" fill="#525252" font-family="&#x27;IBM Plex Sans&#x27;, &#x27;Helvetica Neue&#x27;, Arial, sans-serif">12</text></g><g transform="translate(0,21.555555555555564)"><line x2="-5" stroke="#e0e0e0" stroke-width="1"></line><text x="-8" text-anchor="end" dominant-baseline="middle" font-size="12" fill="#525252" font-family="&#x27;IBM Plex Sans&#x27;, &#x27;Helvetica Neue&#x27;, Arial, sans-serif">14</text></g></g></g><g id="legend"><g class="semiotic-legend" transform="translate(532,14)"><line x1="0" y1="29" x2="106" y2="29" stroke="gray"></line><g transform="translate(0,37)"><rect width="16" height="16" fill="#6929c4" rx="0"></rect><text x="22" y="8" dominant-baseline="central" font-size="12" fill="#161616" font-family="&#x27;IBM Plex Sans&#x27;, &#x27;Helvetica Neue&#x27;, Arial, sans-serif">SSR</text></g><g transform="translate(0,59)"><rect width="16" height="16" fill="#1192e8" rx="0"></rect><text x="22" y="8" dominant-baseline="central" font-size="12" fill="#161616" font-family="&#x27;IBM Plex Sans&#x27;, &#x27;Helvetica Neue&#x27;, Arial, sans-serif">Browser/live</text></g></g></g></svg></g>
      <text x="20" y="338" font-size="10" fill="#525252">Stacked by SSR-renderable vs browser/live-only chart count</text>
    </g>
  
    <g transform="translate(615,432)">
      <rect width="573" height="354" rx="6" fill="#ffffff" stroke="#c6c6c6" />
      <text x="20" y="28" font-size="17" font-weight="700" fill="#161616">Docs surface growth</text>
      <text x="20" y="49" font-size="11" fill="#525252">15 route snapshots; category moves are reflected in each release</text>
      <g transform="translate(12,62)"><svg xmlns="http://www.w3.org/2000/svg" class="stream-xy-frame" width="544" height="218" role="img" aria-labelledby="docs-growth-desc" style="font-family:&#x27;IBM Plex Sans&#x27;, &#x27;Helvetica Neue&#x27;, Arial, sans-serif"><desc id="docs-growth-desc">Stacked area chart showing cumulative routed documentation pages by category across release snapshots.</desc><g id="docs-growth-data-area" transform="translate(42,14)"><g id="docs-growth-grid" class="semiotic-grid" opacity="0.8"><line x1="0" y1="0" x2="0" y2="168" stroke="#e0e0e0" stroke-width="0.5"></line><line x1="68" y1="0" x2="68" y2="168" stroke="#e0e0e0" stroke-width="0.5"></line><line x1="136" y1="0" x2="136" y2="168" stroke="#e0e0e0" stroke-width="0.5"></line><line x1="204" y1="0" x2="204" y2="168" stroke="#e0e0e0" stroke-width="0.5"></line><line x1="272" y1="0" x2="272" y2="168" stroke="#e0e0e0" stroke-width="0.5"></line><line x1="340" y1="0" x2="340" y2="168" stroke="#e0e0e0" stroke-width="0.5"></line><line x1="408" y1="0" x2="408" y2="168" stroke="#e0e0e0" stroke-width="0.5"></line><line x1="476" y1="0" x2="476" y2="168" stroke="#e0e0e0" stroke-width="0.5"></line><line x1="0" y1="168" x2="476" y2="168" stroke="#e0e0e0" stroke-width="0.5"></line><line x1="0" y1="121.71900826446281" x2="476" y2="121.71900826446281" stroke="#e0e0e0" stroke-width="0.5"></line><line x1="0" y1="75.43801652892562" x2="476" y2="75.43801652892562" stroke="#e0e0e0" stroke-width="0.5"></line><line x1="0" y1="29.157024793388427" x2="476" y2="29.157024793388427" stroke="#e0e0e0" stroke-width="0.5"></line></g><defs><clipPath id="cfg6sf2-plot-clip"><rect x="0" y="0" width="476" height="168"></rect></clipPath></defs><g clip-path="url(#cfg6sf2-plot-clip)"><path d="M0,156.893C11.333,156.584,22.667,156.275,34,155.967C45.333,155.658,56.667,155.041,68,155.041C79.333,155.041,90.667,155.041,102,155.041C113.333,155.041,124.667,155.041,136,155.041C147.333,155.041,158.667,154.424,170,154.116C181.333,153.807,192.667,153.19,204,153.19C215.333,153.19,226.667,153.19,238,153.19C249.333,153.19,260.667,153.19,272,153.19C283.333,153.19,294.667,153.19,306,153.19C317.333,153.19,328.667,153.19,340,153.19C351.333,153.19,362.667,153.19,374,153.19C385.333,153.19,396.667,153.19,408,153.19C419.333,153.19,430.667,153.19,442,153.19C453.333,153.19,464.667,153.19,476,153.19L476,168C464.667,168,453.333,168,442,168C430.667,168,419.333,168,408,168C396.667,168,385.333,168,374,168C362.667,168,351.333,168,340,168C328.667,168,317.333,168,306,168C294.667,168,283.333,168,272,168C260.667,168,249.333,168,238,168C226.667,168,215.333,168,204,168C192.667,168,181.333,168,170,168C158.667,168,147.333,168,136,168C124.667,168,113.333,168,102,168C90.667,168,79.333,168,68,168C56.667,168,45.333,168,34,168C22.667,168,11.333,168,0,168Z" fill="#0f62fe" fill-opacity="1" stroke="none"></path><path d="M0,156.893C11.333,156.584,22.667,156.275,34,155.967C45.333,155.658,56.667,155.041,68,155.041C79.333,155.041,90.667,155.041,102,155.041C113.333,155.041,124.667,155.041,136,155.041C147.333,155.041,158.667,154.424,170,154.116C181.333,153.807,192.667,153.19,204,153.19C215.333,153.19,226.667,153.19,238,153.19C249.333,153.19,260.667,153.19,272,153.19C283.333,153.19,294.667,153.19,306,153.19C317.333,153.19,328.667,153.19,340,153.19C351.333,153.19,362.667,153.19,374,153.19C385.333,153.19,396.667,153.19,408,153.19C419.333,153.19,430.667,153.19,442,153.19C453.333,153.19,464.667,153.19,476,153.19" fill="none" stroke="#0f62fe" stroke-width="2"></path><path d="M0,146.711C11.333,146.479,22.667,146.248,34,145.785C45.333,145.322,56.667,144.705,68,143.934C79.333,143.163,90.667,141.157,102,141.157C113.333,141.157,124.667,141.157,136,141.157C147.333,141.157,158.667,140.54,170,140.231C181.333,139.923,192.667,139.306,204,139.306C215.333,139.306,226.667,139.306,238,139.306C249.333,139.306,260.667,139.306,272,139.306C283.333,139.306,294.667,138.38,306,138.38C317.333,138.38,328.667,138.38,340,138.38C351.333,138.38,362.667,138.38,374,138.38C385.333,138.38,396.667,138.38,408,138.38C419.333,138.38,430.667,138.38,442,138.38C453.333,138.38,464.667,138.38,476,138.38L476,153.19C464.667,153.19,453.333,153.19,442,153.19C430.667,153.19,419.333,153.19,408,153.19C396.667,153.19,385.333,153.19,374,153.19C362.667,153.19,351.333,153.19,340,153.19C328.667,153.19,317.333,153.19,306,153.19C294.667,153.19,283.333,153.19,272,153.19C260.667,153.19,249.333,153.19,238,153.19C226.667,153.19,215.333,153.19,204,153.19C192.667,153.19,181.333,153.807,170,154.116C158.667,154.424,147.333,155.041,136,155.041C124.667,155.041,113.333,155.041,102,155.041C90.667,155.041,79.333,155.041,68,155.041C56.667,155.041,45.333,155.658,34,155.967C22.667,156.275,11.333,156.584,0,156.893Z" fill="#4589ff" fill-opacity="1" stroke="none"></path><path d="M0,146.711C11.333,146.479,22.667,146.248,34,145.785C45.333,145.322,56.667,144.705,68,143.934C79.333,143.163,90.667,141.157,102,141.157C113.333,141.157,124.667,141.157,136,141.157C147.333,141.157,158.667,140.54,170,140.231C181.333,139.923,192.667,139.306,204,139.306C215.333,139.306,226.667,139.306,238,139.306C249.333,139.306,260.667,139.306,272,139.306C283.333,139.306,294.667,138.38,306,138.38C317.333,138.38,328.667,138.38,340,138.38C351.333,138.38,362.667,138.38,374,138.38C385.333,138.38,396.667,138.38,408,138.38C419.333,138.38,430.667,138.38,442,138.38C453.333,138.38,464.667,138.38,476,138.38" fill="none" stroke="#4589ff" stroke-width="2"></path><path d="M0,141.157C11.333,140.54,22.667,139.923,34,139.306C45.333,138.689,56.667,138.226,68,137.455C79.333,136.683,90.667,134.678,102,134.678C113.333,134.678,124.667,134.678,136,134.678C147.333,134.678,158.667,134.215,170,133.752C181.333,133.289,192.667,131.901,204,131.901C215.333,131.901,226.667,131.901,238,131.901C249.333,131.901,260.667,131.901,272,131.901C283.333,131.901,294.667,130.975,306,130.975C317.333,130.975,328.667,130.975,340,130.975C351.333,130.975,362.667,130.975,374,130.975C385.333,130.975,396.667,130.975,408,130.975C419.333,130.975,430.667,130.975,442,130.975C453.333,130.975,464.667,130.975,476,130.975L476,138.38C464.667,138.38,453.333,138.38,442,138.38C430.667,138.38,419.333,138.38,408,138.38C396.667,138.38,385.333,138.38,374,138.38C362.667,138.38,351.333,138.38,340,138.38C328.667,138.38,317.333,138.38,306,138.38C294.667,138.38,283.333,139.306,272,139.306C260.667,139.306,249.333,139.306,238,139.306C226.667,139.306,215.333,139.306,204,139.306C192.667,139.306,181.333,139.923,170,140.231C158.667,140.54,147.333,141.157,136,141.157C124.667,141.157,113.333,141.157,102,141.157C90.667,141.157,79.333,143.163,68,143.934C56.667,144.705,45.333,145.322,34,145.785C22.667,146.248,11.333,146.479,0,146.711Z" fill="#78a9ff" fill-opacity="1" stroke="none"></path><path d="M0,141.157C11.333,140.54,22.667,139.923,34,139.306C45.333,138.689,56.667,138.226,68,137.455C79.333,136.683,90.667,134.678,102,134.678C113.333,134.678,124.667,134.678,136,134.678C147.333,134.678,158.667,134.215,170,133.752C181.333,133.289,192.667,131.901,204,131.901C215.333,131.901,226.667,131.901,238,131.901C249.333,131.901,260.667,131.901,272,131.901C283.333,131.901,294.667,130.975,306,130.975C317.333,130.975,328.667,130.975,340,130.975C351.333,130.975,362.667,130.975,374,130.975C385.333,130.975,396.667,130.975,408,130.975C419.333,130.975,430.667,130.975,442,130.975C453.333,130.975,464.667,130.975,476,130.975" fill="none" stroke="#78a9ff" stroke-width="2"></path><path d="M34,134.678C45.333,134.138,56.667,133.598,68,132.826C79.333,132.055,90.667,130.05,102,130.05C113.333,130.05,124.667,130.05,136,130.05C147.333,130.05,158.667,129.587,170,129.124C181.333,128.661,192.667,127.273,204,127.273C215.333,127.273,226.667,127.273,238,127.273C249.333,127.273,260.667,127.273,272,127.273C283.333,127.273,294.667,126.347,306,126.347C317.333,126.347,328.667,126.347,340,126.347C351.333,126.347,362.667,126.347,374,126.347C385.333,126.347,396.667,126.347,408,126.347C419.333,126.347,430.667,126.347,442,126.347C453.333,126.347,464.667,126.347,476,126.347L476,130.975C464.667,130.975,453.333,130.975,442,130.975C430.667,130.975,419.333,130.975,408,130.975C396.667,130.975,385.333,130.975,374,130.975C362.667,130.975,351.333,130.975,340,130.975C328.667,130.975,317.333,130.975,306,130.975C294.667,130.975,283.333,131.901,272,131.901C260.667,131.901,249.333,131.901,238,131.901C226.667,131.901,215.333,131.901,204,131.901C192.667,131.901,181.333,133.289,170,133.752C158.667,134.215,147.333,134.678,136,134.678C124.667,134.678,113.333,134.678,102,134.678C90.667,134.678,79.333,136.683,68,137.455C56.667,138.226,45.333,138.766,34,139.306Z" fill="#a6c8ff" fill-opacity="1" stroke="none"></path><path d="M34,134.678C45.333,134.138,56.667,133.598,68,132.826C79.333,132.055,90.667,130.05,102,130.05C113.333,130.05,124.667,130.05,136,130.05C147.333,130.05,158.667,129.587,170,129.124C181.333,128.661,192.667,127.273,204,127.273C215.333,127.273,226.667,127.273,238,127.273C249.333,127.273,260.667,127.273,272,127.273C283.333,127.273,294.667,126.347,306,126.347C317.333,126.347,328.667,126.347,340,126.347C351.333,126.347,362.667,126.347,374,126.347C385.333,126.347,396.667,126.347,408,126.347C419.333,126.347,430.667,126.347,442,126.347C453.333,126.347,464.667,126.347,476,126.347" fill="none" stroke="#a6c8ff" stroke-width="2"></path><path d="M0,140.231C11.333,137.609,22.667,134.986,34,133.752C45.333,132.518,56.667,132.672,68,131.901C79.333,131.129,90.667,129.124,102,129.124C113.333,129.124,124.667,129.124,136,129.124C147.333,129.124,158.667,128.661,170,128.198C181.333,127.736,192.667,126.347,204,126.347C215.333,126.347,226.667,126.347,238,126.347C249.333,126.347,260.667,126.347,272,126.347C283.333,126.347,294.667,122.645,306,122.645C317.333,122.645,328.667,122.645,340,122.645C351.333,122.645,362.667,122.645,374,122.645C385.333,122.645,396.667,122.645,408,122.645C419.333,122.645,430.667,122.645,442,122.645C453.333,122.645,464.667,118.017,476,113.388L476,118.017C464.667,122.182,453.333,126.347,442,126.347C430.667,126.347,419.333,126.347,408,126.347C396.667,126.347,385.333,126.347,374,126.347C362.667,126.347,351.333,126.347,340,126.347C328.667,126.347,317.333,126.347,306,126.347C294.667,126.347,283.333,127.273,272,127.273C260.667,127.273,249.333,127.273,238,127.273C226.667,127.273,215.333,127.273,204,127.273C192.667,127.273,181.333,128.661,170,129.124C158.667,129.587,147.333,130.05,136,130.05C124.667,130.05,113.333,130.05,102,130.05C90.667,130.05,79.333,132.055,68,132.826C56.667,133.598,45.333,133.444,34,134.678C22.667,135.912,11.333,138.534,0,141.157Z" fill="#8a3ffc" fill-opacity="1" stroke="none"></path><path d="M0,140.231C11.333,137.609,22.667,134.986,34,133.752C45.333,132.518,56.667,132.672,68,131.901C79.333,131.129,90.667,129.124,102,129.124C113.333,129.124,124.667,129.124,136,129.124C147.333,129.124,158.667,128.661,170,128.198C181.333,127.736,192.667,126.347,204,126.347C215.333,126.347,226.667,126.347,238,126.347C249.333,126.347,260.667,126.347,272,126.347C283.333,126.347,294.667,122.645,306,122.645C317.333,122.645,328.667,122.645,340,122.645C351.333,122.645,362.667,122.645,374,122.645C385.333,122.645,396.667,122.645,408,122.645C419.333,122.645,430.667,122.645,442,122.645C453.333,122.645,464.667,118.017,476,113.388" fill="none" stroke="#8a3ffc" stroke-width="2"></path><path d="M0,139.306C11.333,136.22,22.667,133.135,34,131.901C45.333,130.667,56.667,130.821,68,130.05C79.333,129.278,90.667,127.273,102,127.273C113.333,127.273,124.667,127.273,136,127.273C147.333,127.273,158.667,126.81,170,126.347C181.333,125.884,192.667,124.496,204,124.496C215.333,124.496,226.667,124.496,238,124.496C249.333,124.496,260.667,124.496,272,124.496C283.333,124.496,294.667,118.942,306,118.942C317.333,118.942,328.667,118.942,340,118.942C351.333,118.942,362.667,118.942,374,118.942C385.333,118.942,396.667,118.942,408,118.942C419.333,118.942,430.667,118.942,442,118.942C453.333,118.942,464.667,114.314,476,109.686L476,113.388C464.667,118.017,453.333,122.645,442,122.645C430.667,122.645,419.333,122.645,408,122.645C396.667,122.645,385.333,122.645,374,122.645C362.667,122.645,351.333,122.645,340,122.645C328.667,122.645,317.333,122.645,306,122.645C294.667,122.645,283.333,126.347,272,126.347C260.667,126.347,249.333,126.347,238,126.347C226.667,126.347,215.333,126.347,204,126.347C192.667,126.347,181.333,127.736,170,128.198C158.667,128.661,147.333,129.124,136,129.124C124.667,129.124,113.333,129.124,102,129.124C90.667,129.124,79.333,131.129,68,131.901C56.667,132.672,45.333,132.518,34,133.752C22.667,134.986,11.333,137.609,0,140.231Z" fill="#a56eff" fill-opacity="1" stroke="none"></path><path d="M0,139.306C11.333,136.22,22.667,133.135,34,131.901C45.333,130.667,56.667,130.821,68,130.05C79.333,129.278,90.667,127.273,102,127.273C113.333,127.273,124.667,127.273,136,127.273C147.333,127.273,158.667,126.81,170,126.347C181.333,125.884,192.667,124.496,204,124.496C215.333,124.496,226.667,124.496,238,124.496C249.333,124.496,260.667,124.496,272,124.496C283.333,124.496,294.667,118.942,306,118.942C317.333,118.942,328.667,118.942,340,118.942C351.333,118.942,362.667,118.942,374,118.942C385.333,118.942,396.667,118.942,408,118.942C419.333,118.942,430.667,118.942,442,118.942C453.333,118.942,464.667,114.314,476,109.686" fill="none" stroke="#a56eff" stroke-width="2"></path><path d="M204,123.57C215.333,123.57,226.667,123.57,238,123.57C249.333,123.57,260.667,122.645,272,120.793C283.333,118.942,294.667,107.835,306,107.835C317.333,107.835,328.667,107.835,340,107.835C351.333,107.835,362.667,107.835,374,107.835C385.333,107.835,396.667,107.835,408,107.835C419.333,107.835,430.667,107.835,442,107.835C453.333,107.835,464.667,101.818,476,95.802L476,109.686C464.667,114.314,453.333,118.942,442,118.942C430.667,118.942,419.333,118.942,408,118.942C396.667,118.942,385.333,118.942,374,118.942C362.667,118.942,351.333,118.942,340,118.942C328.667,118.942,317.333,118.942,306,118.942C294.667,118.942,283.333,124.496,272,124.496C260.667,124.496,249.333,124.496,238,124.496C226.667,124.496,215.333,124.496,204,124.496Z" fill="#be95ff" fill-opacity="1" stroke="none"></path><path d="M204,123.57C215.333,123.57,226.667,123.57,238,123.57C249.333,123.57,260.667,122.645,272,120.793C283.333,118.942,294.667,107.835,306,107.835C317.333,107.835,328.667,107.835,340,107.835C351.333,107.835,362.667,107.835,374,107.835C385.333,107.835,396.667,107.835,408,107.835C419.333,107.835,430.667,107.835,442,107.835C453.333,107.835,464.667,101.818,476,95.802" fill="none" stroke="#be95ff" stroke-width="2"></path><path d="M0,137.455C11.333,134.369,22.667,131.284,34,130.05C45.333,128.815,56.667,128.97,68,128.198C79.333,127.427,90.667,125.421,102,125.421C113.333,125.421,124.667,125.421,136,125.421C147.333,125.421,158.667,125.113,170,124.496C181.333,123.879,192.667,121.719,204,121.719C215.333,121.719,226.667,121.719,238,121.719C249.333,121.719,260.667,120.793,272,118.942C283.333,117.091,294.667,105.983,306,105.983C317.333,105.983,328.667,105.983,340,105.983C351.333,105.983,362.667,105.983,374,105.983C385.333,105.983,396.667,105.983,408,105.983C419.333,105.983,430.667,105.983,442,105.983C453.333,105.983,464.667,96.727,476,87.471L476,95.802C464.667,101.818,453.333,107.835,442,107.835C430.667,107.835,419.333,107.835,408,107.835C396.667,107.835,385.333,107.835,374,107.835C362.667,107.835,351.333,107.835,340,107.835C328.667,107.835,317.333,107.835,306,107.835C294.667,107.835,283.333,118.942,272,120.793C260.667,122.645,249.333,123.57,238,123.57C226.667,123.57,215.333,123.57,204,123.57C192.667,123.57,181.333,125.73,170,126.347C158.667,126.964,147.333,127.273,136,127.273C124.667,127.273,113.333,127.273,102,127.273C90.667,127.273,79.333,129.278,68,130.05C56.667,130.821,45.333,130.667,34,131.901C22.667,133.135,11.333,136.22,0,139.306Z" fill="#d4bbff" fill-opacity="1" stroke="none"></path><path d="M0,137.455C11.333,134.369,22.667,131.284,34,130.05C45.333,128.815,56.667,128.97,68,128.198C79.333,127.427,90.667,125.421,102,125.421C113.333,125.421,124.667,125.421,136,125.421C147.333,125.421,158.667,125.113,170,124.496C181.333,123.879,192.667,121.719,204,121.719C215.333,121.719,226.667,121.719,238,121.719C249.333,121.719,260.667,120.793,272,118.942C283.333,117.091,294.667,105.983,306,105.983C317.333,105.983,328.667,105.983,340,105.983C351.333,105.983,362.667,105.983,374,105.983C385.333,105.983,396.667,105.983,408,105.983C419.333,105.983,430.667,105.983,442,105.983C453.333,105.983,464.667,96.727,476,87.471" fill="none" stroke="#d4bbff" stroke-width="2"></path><path d="M0,125.421C11.333,121.873,22.667,118.325,34,117.091C45.333,115.857,56.667,116.165,68,115.24C79.333,114.314,90.667,111.537,102,111.537C113.333,111.537,124.667,111.537,136,111.537C147.333,111.537,158.667,110.457,170,109.686C181.333,108.915,192.667,106.909,204,106.909C215.333,106.909,226.667,106.909,238,106.909C249.333,106.909,260.667,106.292,272,105.058C283.333,103.824,294.667,92.099,306,92.099C317.333,92.099,328.667,92.099,340,92.099C351.333,92.099,362.667,92.099,374,92.099C385.333,92.099,396.667,92.099,408,92.099C419.333,92.099,430.667,92.099,442,92.099C453.333,92.099,464.667,78.678,476,65.256L476,87.471C464.667,96.727,453.333,105.983,442,105.983C430.667,105.983,419.333,105.983,408,105.983C396.667,105.983,385.333,105.983,374,105.983C362.667,105.983,351.333,105.983,340,105.983C328.667,105.983,317.333,105.983,306,105.983C294.667,105.983,283.333,117.091,272,118.942C260.667,120.793,249.333,121.719,238,121.719C226.667,121.719,215.333,121.719,204,121.719C192.667,121.719,181.333,123.879,170,124.496C158.667,125.113,147.333,125.421,136,125.421C124.667,125.421,113.333,125.421,102,125.421C90.667,125.421,79.333,127.427,68,128.198C56.667,128.97,45.333,128.815,34,130.05C22.667,131.284,11.333,134.369,0,137.455Z" fill="#007d79" fill-opacity="1" stroke="none"></path><path d="M0,125.421C11.333,121.873,22.667,118.325,34,117.091C45.333,115.857,56.667,116.165,68,115.24C79.333,114.314,90.667,111.537,102,111.537C113.333,111.537,124.667,111.537,136,111.537C147.333,111.537,158.667,110.457,170,109.686C181.333,108.915,192.667,106.909,204,106.909C215.333,106.909,226.667,106.909,238,106.909C249.333,106.909,260.667,106.292,272,105.058C283.333,103.824,294.667,92.099,306,92.099C317.333,92.099,328.667,92.099,340,92.099C351.333,92.099,362.667,92.099,374,92.099C385.333,92.099,396.667,92.099,408,92.099C419.333,92.099,430.667,92.099,442,92.099C453.333,92.099,464.667,78.678,476,65.256" fill="none" stroke="#007d79" stroke-width="2"></path><path d="M0,124.496C11.333,121.333,22.667,118.171,34,116.165C45.333,114.16,56.667,113.697,68,112.463C79.333,111.229,90.667,108.76,102,108.76C113.333,108.76,124.667,108.76,136,108.76C147.333,108.76,158.667,106.909,170,105.983C181.333,105.058,192.667,103.207,204,103.207C215.333,103.207,226.667,103.207,238,103.207C249.333,103.207,260.667,102.59,272,101.355C283.333,100.121,294.667,88.397,306,88.397C317.333,88.397,328.667,88.397,340,88.397C351.333,88.397,362.667,88.397,374,88.397C385.333,88.397,396.667,88.397,408,88.397C419.333,88.397,430.667,88.397,442,88.397C453.333,88.397,464.667,74.975,476,61.554L476,65.256C464.667,78.678,453.333,92.099,442,92.099C430.667,92.099,419.333,92.099,408,92.099C396.667,92.099,385.333,92.099,374,92.099C362.667,92.099,351.333,92.099,340,92.099C328.667,92.099,317.333,92.099,306,92.099C294.667,92.099,283.333,103.824,272,105.058C260.667,106.292,249.333,106.909,238,106.909C226.667,106.909,215.333,106.909,204,106.909C192.667,106.909,181.333,108.915,170,109.686C158.667,110.457,147.333,111.537,136,111.537C124.667,111.537,113.333,111.537,102,111.537C90.667,111.537,79.333,114.314,68,115.24C56.667,116.165,45.333,115.857,34,117.091C22.667,118.325,11.333,121.873,0,125.421Z" fill="#42be65" fill-opacity="1" stroke="none"></path><path d="M0,124.496C11.333,121.333,22.667,118.171,34,116.165C45.333,114.16,56.667,113.697,68,112.463C79.333,111.229,90.667,108.76,102,108.76C113.333,108.76,124.667,108.76,136,108.76C147.333,108.76,158.667,106.909,170,105.983C181.333,105.058,192.667,103.207,204,103.207C215.333,103.207,226.667,103.207,238,103.207C249.333,103.207,260.667,102.59,272,101.355C283.333,100.121,294.667,88.397,306,88.397C317.333,88.397,328.667,88.397,340,88.397C351.333,88.397,362.667,88.397,374,88.397C385.333,88.397,396.667,88.397,408,88.397C419.333,88.397,430.667,88.397,442,88.397C453.333,88.397,464.667,74.975,476,61.554" fill="none" stroke="#42be65" stroke-width="2"></path><path d="M0,112.463C11.333,109.3,22.667,106.138,34,104.132C45.333,102.127,56.667,101.664,68,100.43C79.333,99.196,90.667,96.727,102,96.727C113.333,96.727,124.667,96.727,136,96.727C147.333,96.727,158.667,95.647,170,94.876C181.333,94.105,192.667,92.099,204,92.099C215.333,92.099,226.667,92.099,238,92.099C249.333,92.099,260.667,91.482,272,90.248C283.333,89.014,294.667,77.289,306,77.289C317.333,77.289,328.667,77.289,340,77.289C351.333,77.289,362.667,77.289,374,77.289C385.333,77.289,396.667,77.289,408,77.289C419.333,77.289,430.667,77.289,442,77.289C453.333,77.289,464.667,64.331,476,51.372L476,61.554C464.667,74.975,453.333,88.397,442,88.397C430.667,88.397,419.333,88.397,408,88.397C396.667,88.397,385.333,88.397,374,88.397C362.667,88.397,351.333,88.397,340,88.397C328.667,88.397,317.333,88.397,306,88.397C294.667,88.397,283.333,100.121,272,101.355C260.667,102.59,249.333,103.207,238,103.207C226.667,103.207,215.333,103.207,204,103.207C192.667,103.207,181.333,105.058,170,105.983C158.667,106.909,147.333,108.76,136,108.76C124.667,108.76,113.333,108.76,102,108.76C90.667,108.76,79.333,111.229,68,112.463C56.667,113.697,45.333,114.16,34,116.165C22.667,118.171,11.333,121.333,0,124.496Z" fill="#6fdc8c" fill-opacity="1" stroke="none"></path><path d="M0,112.463C11.333,109.3,22.667,106.138,34,104.132C45.333,102.127,56.667,101.664,68,100.43C79.333,99.196,90.667,96.727,102,96.727C113.333,96.727,124.667,96.727,136,96.727C147.333,96.727,158.667,95.647,170,94.876C181.333,94.105,192.667,92.099,204,92.099C215.333,92.099,226.667,92.099,238,92.099C249.333,92.099,260.667,91.482,272,90.248C283.333,89.014,294.667,77.289,306,77.289C317.333,77.289,328.667,77.289,340,77.289C351.333,77.289,362.667,77.289,374,77.289C385.333,77.289,396.667,77.289,408,77.289C419.333,77.289,430.667,77.289,442,77.289C453.333,77.289,464.667,64.331,476,51.372" fill="none" stroke="#6fdc8c" stroke-width="2"></path><path d="M0,109.686C11.333,104.904,22.667,100.121,34,97.653C45.333,95.185,56.667,95.185,68,93.95C79.333,92.716,90.667,90.248,102,90.248C113.333,90.248,124.667,90.248,136,90.248C147.333,90.248,158.667,89.168,170,88.397C181.333,87.625,192.667,85.62,204,85.62C215.333,85.62,226.667,86.545,238,86.545C249.333,86.545,260.667,85.928,272,84.694C283.333,83.46,294.667,71.736,306,71.736C317.333,71.736,328.667,71.736,340,71.736C351.333,71.736,362.667,71.736,374,71.736C385.333,71.736,396.667,71.736,408,71.736C419.333,71.736,430.667,71.427,442,70.81C453.333,70.193,464.667,56.154,476,42.116L476,51.372C464.667,64.331,453.333,77.289,442,77.289C430.667,77.289,419.333,77.289,408,77.289C396.667,77.289,385.333,77.289,374,77.289C362.667,77.289,351.333,77.289,340,77.289C328.667,77.289,317.333,77.289,306,77.289C294.667,77.289,283.333,89.014,272,90.248C260.667,91.482,249.333,92.099,238,92.099C226.667,92.099,215.333,92.099,204,92.099C192.667,92.099,181.333,94.105,170,94.876C158.667,95.647,147.333,96.727,136,96.727C124.667,96.727,113.333,96.727,102,96.727C90.667,96.727,79.333,99.196,68,100.43C56.667,101.664,45.333,102.127,34,104.132C22.667,106.138,11.333,109.3,0,112.463Z" fill="#a7f0ba" fill-opacity="1" stroke="none"></path><path d="M0,109.686C11.333,104.904,22.667,100.121,34,97.653C45.333,95.185,56.667,95.185,68,93.95C79.333,92.716,90.667,90.248,102,90.248C113.333,90.248,124.667,90.248,136,90.248C147.333,90.248,158.667,89.168,170,88.397C181.333,87.625,192.667,85.62,204,85.62C215.333,85.62,226.667,86.545,238,86.545C249.333,86.545,260.667,85.928,272,84.694C283.333,83.46,294.667,71.736,306,71.736C317.333,71.736,328.667,71.736,340,71.736C351.333,71.736,362.667,71.736,374,71.736C385.333,71.736,396.667,71.736,408,71.736C419.333,71.736,430.667,71.427,442,70.81C453.333,70.193,464.667,56.154,476,42.116" fill="none" stroke="#a7f0ba" stroke-width="2"></path><path d="M0,94.876C11.333,88.705,22.667,82.534,34,80.066C45.333,77.598,56.667,77.598,68,76.364C79.333,75.129,90.667,73.278,102,72.661C113.333,72.044,124.667,72.198,136,71.736C147.333,71.273,158.667,70.656,170,69.884C181.333,69.113,192.667,67.107,204,67.107C215.333,67.107,226.667,68.033,238,68.033C249.333,68.033,260.667,67.416,272,66.182C283.333,64.948,294.667,54.149,306,54.149C317.333,54.149,328.667,54.149,340,54.149C351.333,54.149,362.667,54.149,374,54.149C385.333,54.149,396.667,54.149,408,54.149C419.333,54.149,430.667,53.84,442,53.223C453.333,52.606,464.667,38.567,476,24.529L476,42.116C464.667,56.154,453.333,70.193,442,70.81C430.667,71.427,419.333,71.736,408,71.736C396.667,71.736,385.333,71.736,374,71.736C362.667,71.736,351.333,71.736,340,71.736C328.667,71.736,317.333,71.736,306,71.736C294.667,71.736,283.333,83.46,272,84.694C260.667,85.928,249.333,86.545,238,86.545C226.667,86.545,215.333,85.62,204,85.62C192.667,85.62,181.333,87.625,170,88.397C158.667,89.168,147.333,90.248,136,90.248C124.667,90.248,113.333,90.248,102,90.248C90.667,90.248,79.333,92.716,68,93.95C56.667,95.185,45.333,95.185,34,97.653C22.667,100.121,11.333,104.904,0,109.686Z" fill="#d02670" fill-opacity="1" stroke="none"></path><path d="M0,94.876C11.333,88.705,22.667,82.534,34,80.066C45.333,77.598,56.667,77.598,68,76.364C79.333,75.129,90.667,73.278,102,72.661C113.333,72.044,124.667,72.198,136,71.736C147.333,71.273,158.667,70.656,170,69.884C181.333,69.113,192.667,67.107,204,67.107C215.333,67.107,226.667,68.033,238,68.033C249.333,68.033,260.667,67.416,272,66.182C283.333,64.948,294.667,54.149,306,54.149C317.333,54.149,328.667,54.149,340,54.149C351.333,54.149,362.667,54.149,374,54.149C385.333,54.149,396.667,54.149,408,54.149C419.333,54.149,430.667,53.84,442,53.223C453.333,52.606,464.667,38.567,476,24.529" fill="none" stroke="#d02670" stroke-width="2"></path><path d="M0,93.95C11.333,87.317,22.667,80.683,34,78.215C45.333,75.747,56.667,76.518,68,74.512C79.333,72.507,90.667,66.799,102,66.182C113.333,65.565,124.667,65.719,136,65.256C147.333,64.793,158.667,64.176,170,63.405C181.333,62.634,192.667,60.628,204,60.628C215.333,60.628,226.667,61.554,238,61.554C249.333,61.554,260.667,60.937,272,59.702C283.333,58.468,294.667,47.669,306,47.669C317.333,47.669,328.667,47.669,340,47.669C351.333,47.669,362.667,47.669,374,47.669C385.333,47.669,396.667,47.669,408,47.669C419.333,47.669,430.667,47.361,442,46.744C453.333,46.127,464.667,31.625,476,17.124L476,24.529C464.667,38.567,453.333,52.606,442,53.223C430.667,53.84,419.333,54.149,408,54.149C396.667,54.149,385.333,54.149,374,54.149C362.667,54.149,351.333,54.149,340,54.149C328.667,54.149,317.333,54.149,306,54.149C294.667,54.149,283.333,64.948,272,66.182C260.667,67.416,249.333,68.033,238,68.033C226.667,68.033,215.333,67.107,204,67.107C192.667,67.107,181.333,69.113,170,69.884C158.667,70.656,147.333,71.273,136,71.736C124.667,72.198,113.333,72.044,102,72.661C90.667,73.278,79.333,75.129,68,76.364C56.667,77.598,45.333,77.598,34,80.066C22.667,82.534,11.333,88.705,0,94.876Z" fill="#ee5396" fill-opacity="1" stroke="none"></path><path d="M0,93.95C11.333,87.317,22.667,80.683,34,78.215C45.333,75.747,56.667,76.518,68,74.512C79.333,72.507,90.667,66.799,102,66.182C113.333,65.565,124.667,65.719,136,65.256C147.333,64.793,158.667,64.176,170,63.405C181.333,62.634,192.667,60.628,204,60.628C215.333,60.628,226.667,61.554,238,61.554C249.333,61.554,260.667,60.937,272,59.702C283.333,58.468,294.667,47.669,306,47.669C317.333,47.669,328.667,47.669,340,47.669C351.333,47.669,362.667,47.669,374,47.669C385.333,47.669,396.667,47.669,408,47.669C419.333,47.669,430.667,47.361,442,46.744C453.333,46.127,464.667,31.625,476,17.124" fill="none" stroke="#ee5396" stroke-width="2"></path><path d="M0,93.025C11.333,85.928,22.667,78.832,34,76.364C45.333,73.895,56.667,74.667,68,72.661C79.333,70.656,90.667,64.948,102,64.331C113.333,63.713,124.667,63.868,136,63.405C147.333,62.942,158.667,62.325,170,61.554C181.333,60.782,192.667,58.777,204,58.777C215.333,58.777,226.667,59.702,238,59.702C249.333,59.702,260.667,59.085,272,57.851C283.333,56.617,294.667,45.818,306,45.818C317.333,45.818,328.667,45.818,340,45.818C351.333,45.818,362.667,45.818,374,45.818C385.333,45.818,396.667,45.818,408,45.818C419.333,45.818,430.667,45.51,442,44.893C453.333,44.275,464.667,29.774,476,15.273L476,17.124C464.667,31.625,453.333,46.127,442,46.744C430.667,47.361,419.333,47.669,408,47.669C396.667,47.669,385.333,47.669,374,47.669C362.667,47.669,351.333,47.669,340,47.669C328.667,47.669,317.333,47.669,306,47.669C294.667,47.669,283.333,58.468,272,59.702C260.667,60.937,249.333,61.554,238,61.554C226.667,61.554,215.333,60.628,204,60.628C192.667,60.628,181.333,62.634,170,63.405C158.667,64.176,147.333,64.793,136,65.256C124.667,65.719,113.333,65.565,102,66.182C90.667,66.799,79.333,72.507,68,74.512C56.667,76.518,45.333,75.747,34,78.215C22.667,80.683,11.333,87.317,0,93.95Z" fill="#ff7eb6" fill-opacity="1" stroke="none"></path><path d="M0,93.025C11.333,85.928,22.667,78.832,34,76.364C45.333,73.895,56.667,74.667,68,72.661C79.333,70.656,90.667,64.948,102,64.331C113.333,63.713,124.667,63.868,136,63.405C147.333,62.942,158.667,62.325,170,61.554C181.333,60.782,192.667,58.777,204,58.777C215.333,58.777,226.667,59.702,238,59.702C249.333,59.702,260.667,59.085,272,57.851C283.333,56.617,294.667,45.818,306,45.818C317.333,45.818,328.667,45.818,340,45.818C351.333,45.818,362.667,45.818,374,45.818C385.333,45.818,396.667,45.818,408,45.818C419.333,45.818,430.667,45.51,442,44.893C453.333,44.275,464.667,29.774,476,15.273" fill="none" stroke="#ff7eb6" stroke-width="2"></path></g><g id="docs-growth-axes" class="stream-axes"><line x1="0" y1="168" x2="476" y2="168" stroke="#e0e0e0" stroke-width="1"></line><g transform="translate(0,168)"><line y2="5" stroke="#e0e0e0" stroke-width="1"></line><text y="18" text-anchor="middle" font-size="12" fill="#525252" font-family="&#x27;IBM Plex Sans&#x27;, &#x27;Helvetica Neue&#x27;, Arial, sans-serif">0</text></g><g transform="translate(68,168)"><line y2="5" stroke="#e0e0e0" stroke-width="1"></line><text y="18" text-anchor="middle" font-size="12" fill="#525252" font-family="&#x27;IBM Plex Sans&#x27;, &#x27;Helvetica Neue&#x27;, Arial, sans-serif">2</text></g><g transform="translate(136,168)"><line y2="5" stroke="#e0e0e0" stroke-width="1"></line><text y="18" text-anchor="middle" font-size="12" fill="#525252" font-family="&#x27;IBM Plex Sans&#x27;, &#x27;Helvetica Neue&#x27;, Arial, sans-serif">4</text></g><g transform="translate(204,168)"><line y2="5" stroke="#e0e0e0" stroke-width="1"></line><text y="18" text-anchor="middle" font-size="12" fill="#525252" font-family="&#x27;IBM Plex Sans&#x27;, &#x27;Helvetica Neue&#x27;, Arial, sans-serif">6</text></g><g transform="translate(272,168)"><line y2="5" stroke="#e0e0e0" stroke-width="1"></line><text y="18" text-anchor="middle" font-size="12" fill="#525252" font-family="&#x27;IBM Plex Sans&#x27;, &#x27;Helvetica Neue&#x27;, Arial, sans-serif">8</text></g><g transform="translate(340,168)"><line y2="5" stroke="#e0e0e0" stroke-width="1"></line><text y="18" text-anchor="middle" font-size="12" fill="#525252" font-family="&#x27;IBM Plex Sans&#x27;, &#x27;Helvetica Neue&#x27;, Arial, sans-serif">10</text></g><g transform="translate(408,168)"><line y2="5" stroke="#e0e0e0" stroke-width="1"></line><text y="18" text-anchor="middle" font-size="12" fill="#525252" font-family="&#x27;IBM Plex Sans&#x27;, &#x27;Helvetica Neue&#x27;, Arial, sans-serif">12</text></g><g transform="translate(476,168)"><line y2="5" stroke="#e0e0e0" stroke-width="1"></line><text y="18" text-anchor="middle" font-size="12" fill="#525252" font-family="&#x27;IBM Plex Sans&#x27;, &#x27;Helvetica Neue&#x27;, Arial, sans-serif">14</text></g><line x1="0" y1="0" x2="0" y2="168" stroke="#e0e0e0" stroke-width="1"></line><g transform="translate(0,168)"><line x2="-5" stroke="#e0e0e0" stroke-width="1"></line><text x="-8" text-anchor="end" dominant-baseline="middle" font-size="12" fill="#525252" font-family="&#x27;IBM Plex Sans&#x27;, &#x27;Helvetica Neue&#x27;, Arial, sans-serif">0</text></g><g transform="translate(0,121.71900826446281)"><line x2="-5" stroke="#e0e0e0" stroke-width="1"></line><text x="-8" text-anchor="end" dominant-baseline="middle" font-size="12" fill="#525252" font-family="&#x27;IBM Plex Sans&#x27;, &#x27;Helvetica Neue&#x27;, Arial, sans-serif">50</text></g><g transform="translate(0,75.43801652892562)"><line x2="-5" stroke="#e0e0e0" stroke-width="1"></line><text x="-8" text-anchor="end" dominant-baseline="middle" font-size="12" fill="#525252" font-family="&#x27;IBM Plex Sans&#x27;, &#x27;Helvetica Neue&#x27;, Arial, sans-serif">100</text></g><g transform="translate(0,29.157024793388427)"><line x2="-5" stroke="#e0e0e0" stroke-width="1"></line><text x="-8" text-anchor="end" dominant-baseline="middle" font-size="12" fill="#525252" font-family="&#x27;IBM Plex Sans&#x27;, &#x27;Helvetica Neue&#x27;, Arial, sans-serif">150</text></g></g></g><g id="legend"><g class="semiotic-legend" transform="translate(528,14)"><line x1="0" y1="29" x2="134" y2="29" stroke="gray"></line><g transform="translate(0,37)"><rect width="16" height="16" fill="#0f62fe" rx="0"></rect><text x="22" y="8" dominant-baseline="central" font-size="12" fill="#161616" font-family="&#x27;IBM Plex Sans&#x27;, &#x27;Helvetica Neue&#x27;, Arial, sans-serif">XY Charts</text></g><g transform="translate(0,59)"><rect width="16" height="16" fill="#4589ff" rx="0"></rect><text x="22" y="8" dominant-baseline="central" font-size="12" fill="#161616" font-family="&#x27;IBM Plex Sans&#x27;, &#x27;Helvetica Neue&#x27;, Arial, sans-serif">Ordinal Charts</text></g><g transform="translate(0,81)"><rect width="16" height="16" fill="#78a9ff" rx="0"></rect><text x="22" y="8" dominant-baseline="central" font-size="12" fill="#161616" font-family="&#x27;IBM Plex Sans&#x27;, &#x27;Helvetica Neue&#x27;, Arial, sans-serif">Network Charts</text></g><g transform="translate(0,103)"><rect width="16" height="16" fill="#a6c8ff" rx="0"></rect><text x="22" y="8" dominant-baseline="central" font-size="12" fill="#161616" font-family="&#x27;IBM Plex Sans&#x27;, &#x27;Helvetica Neue&#x27;, Arial, sans-serif">Geo Charts</text></g><g transform="translate(0,125)"><rect width="16" height="16" fill="#33b1ff" rx="0"></rect><text x="22" y="8" dominant-baseline="central" font-size="12" fill="#161616" font-family="&#x27;IBM Plex Sans&#x27;, &#x27;Helvetica Neue&#x27;, Arial, sans-serif">Physics Charts</text></g><g transform="translate(0,147)"><rect width="16" height="16" fill="#d0e2ff" rx="0"></rect><text x="22" y="8" dominant-baseline="central" font-size="12" fill="#161616" font-family="&#x27;IBM Plex Sans&#x27;, &#x27;Helvetica Neue&#x27;, Arial, sans-serif">Custom Charts</text></g><g transform="translate(0,169)"><rect width="16" height="16" fill="#8a3ffc" rx="0"></rect><text x="22" y="8" dominant-baseline="central" font-size="12" fill="#161616" font-family="&#x27;IBM Plex Sans&#x27;, &#x27;Helvetica Neue&#x27;, Arial, sans-serif">Accessibility</text></g><g transform="translate(0,191)"><rect width="16" height="16" fill="#a56eff" rx="0"></rect><text x="22" y="8" dominant-baseline="central" font-size="12" fill="#161616" font-family="&#x27;IBM Plex Sans&#x27;, &#x27;Helvetica Neue&#x27;, Arial, sans-serif">Annotations</text></g><g transform="translate(0,213)"><rect width="16" height="16" fill="#be95ff" rx="0"></rect><text x="22" y="8" dominant-baseline="central" font-size="12" fill="#161616" font-family="&#x27;IBM Plex Sans&#x27;, &#x27;Helvetica Neue&#x27;, Arial, sans-serif">Intelligence</text></g><g transform="translate(0,235)"><rect width="16" height="16" fill="#d4bbff" rx="0"></rect><text x="22" y="8" dominant-baseline="central" font-size="12" fill="#161616" font-family="&#x27;IBM Plex Sans&#x27;, &#x27;Helvetica Neue&#x27;, Arial, sans-serif">Interoperability</text></g><g transform="translate(0,257)"><rect width="16" height="16" fill="#007d79" rx="0"></rect><text x="22" y="8" dominant-baseline="central" font-size="12" fill="#161616" font-family="&#x27;IBM Plex Sans&#x27;, &#x27;Helvetica Neue&#x27;, Arial, sans-serif">Features</text></g><g transform="translate(0,279)"><rect width="16" height="16" fill="#42be65" rx="0"></rect><text x="22" y="8" dominant-baseline="central" font-size="12" fill="#161616" font-family="&#x27;IBM Plex Sans&#x27;, &#x27;Helvetica Neue&#x27;, Arial, sans-serif">Theming</text></g><g transform="translate(0,301)"><rect width="16" height="16" fill="#6fdc8c" rx="0"></rect><text x="22" y="8" dominant-baseline="central" font-size="12" fill="#161616" font-family="&#x27;IBM Plex Sans&#x27;, &#x27;Helvetica Neue&#x27;, Arial, sans-serif">Cookbook</text></g><g transform="translate(0,323)"><rect width="16" height="16" fill="#a7f0ba" rx="0"></rect><text x="22" y="8" dominant-baseline="central" font-size="12" fill="#161616" font-family="&#x27;IBM Plex Sans&#x27;, &#x27;Helvetica Neue&#x27;, Arial, sans-serif">Recipes</text></g><g transform="translate(0,345)"><rect width="16" height="16" fill="#d02670" rx="0"></rect><text x="22" y="8" dominant-baseline="central" font-size="12" fill="#161616" font-family="&#x27;IBM Plex Sans&#x27;, &#x27;Helvetica Neue&#x27;, Arial, sans-serif">Playground</text></g><g transform="translate(0,367)"><rect width="16" height="16" fill="#ee5396" rx="0"></rect><text x="22" y="8" dominant-baseline="central" font-size="12" fill="#161616" font-family="&#x27;IBM Plex Sans&#x27;, &#x27;Helvetica Neue&#x27;, Arial, sans-serif">Server Rendering</text></g><g transform="translate(0,389)"><rect width="16" height="16" fill="#ff7eb6" rx="0"></rect><text x="22" y="8" dominant-baseline="central" font-size="12" fill="#161616" font-family="&#x27;IBM Plex Sans&#x27;, &#x27;Helvetica Neue&#x27;, Arial, sans-serif">API Reference</text></g></g></g></svg><g transform="translate(42,226)">
      <g transform="translate(0,0)">
        <rect width="8" height="8" rx="1.5" fill="#0f62fe" />
        <text x="12" y="7.5" font-size="8" fill="#525252">XY Charts</text>
      </g>
      <g transform="translate(88,0)">
        <rect width="8" height="8" rx="1.5" fill="#4589ff" />
        <text x="12" y="7.5" font-size="8" fill="#525252">Ordinal Charts</text>
      </g>
      <g transform="translate(176,0)">
        <rect width="8" height="8" rx="1.5" fill="#78a9ff" />
        <text x="12" y="7.5" font-size="8" fill="#525252">Network Charts</text>
      </g>
      <g transform="translate(264,0)">
        <rect width="8" height="8" rx="1.5" fill="#a6c8ff" />
        <text x="12" y="7.5" font-size="8" fill="#525252">Geo Charts</text>
      </g>
      <g transform="translate(352,0)">
        <rect width="8" height="8" rx="1.5" fill="#33b1ff" />
        <text x="12" y="7.5" font-size="8" fill="#525252">Physics Charts</text>
      </g>
      <g transform="translate(440,0)">
        <rect width="8" height="8" rx="1.5" fill="#d0e2ff" />
        <text x="12" y="7.5" font-size="8" fill="#525252">Custom Charts</text>
      </g>
      <g transform="translate(0,15)">
        <rect width="8" height="8" rx="1.5" fill="#8a3ffc" />
        <text x="12" y="7.5" font-size="8" fill="#525252">Accessibility</text>
      </g>
      <g transform="translate(88,15)">
        <rect width="8" height="8" rx="1.5" fill="#a56eff" />
        <text x="12" y="7.5" font-size="8" fill="#525252">Annotations</text>
      </g>
      <g transform="translate(176,15)">
        <rect width="8" height="8" rx="1.5" fill="#be95ff" />
        <text x="12" y="7.5" font-size="8" fill="#525252">Intelligence</text>
      </g>
      <g transform="translate(264,15)">
        <rect width="8" height="8" rx="1.5" fill="#d4bbff" />
        <text x="12" y="7.5" font-size="8" fill="#525252">Interoperability</text>
      </g>
      <g transform="translate(352,15)">
        <rect width="8" height="8" rx="1.5" fill="#007d79" />
        <text x="12" y="7.5" font-size="8" fill="#525252">Features</text>
      </g>
      <g transform="translate(440,15)">
        <rect width="8" height="8" rx="1.5" fill="#42be65" />
        <text x="12" y="7.5" font-size="8" fill="#525252">Theming</text>
      </g>
      <g transform="translate(0,30)">
        <rect width="8" height="8" rx="1.5" fill="#6fdc8c" />
        <text x="12" y="7.5" font-size="8" fill="#525252">Cookbook</text>
      </g>
      <g transform="translate(88,30)">
        <rect width="8" height="8" rx="1.5" fill="#a7f0ba" />
        <text x="12" y="7.5" font-size="8" fill="#525252">Recipes</text>
      </g>
      <g transform="translate(176,30)">
        <rect width="8" height="8" rx="1.5" fill="#d02670" />
        <text x="12" y="7.5" font-size="8" fill="#525252">Playground</text>
      </g>
      <g transform="translate(264,30)">
        <rect width="8" height="8" rx="1.5" fill="#ee5396" />
        <text x="12" y="7.5" font-size="8" fill="#525252">Server Rendering</text>
      </g>
      <g transform="translate(352,30)">
        <rect width="8" height="8" rx="1.5" fill="#ff7eb6" />
        <text x="12" y="7.5" font-size="8" fill="#525252">API Reference</text>
      </g></g></g>
      
    </g>
  <text x="34" y="806" font-size="13" fill="#525252">Generated by <tspan font-family="ui-monospace, SFMono-Regular, Menlo, monospace">scripts/generate-readme-dashboard.tsx</tspan> with <tspan font-family="ui-monospace, SFMono-Regular, Menlo, monospace">semiotic/server</tspan> using Semiotic&apos;s Server-Side Rendering (SSR).</text>
</svg>
